<?xml version="1.0" standalone="no"?><!DOCTYPE svg PUBLIC "-//W3C//DTD SVG 1.1//EN" "http://www.w3.org/Graphics/SVG/1.1/DTD/svg11.dtd"><svg t="1628044991516" class="icon" viewBox="0 0 1024 1024" version="1.1" xmlns="http://www.w3.org/2000/svg" p-id="2208" xmlns:xlink="http://www.w3.org/1999/xlink" width="200" height="200"><defs><style type="text/css"></style></defs><path d="M746.43 127.5l-530.91 317.27999999 0-357.60999999c0-12.54999999-10.18-22.73-22.73-22.73s-22.73 10.18-22.73 22.73L170.06 935.83c0 12.54999999 10.18 22.73 22.73 22.73s22.73-10.18 22.72999999-22.73l1e-8-357.6L746.43 895.5c46.49 27.78 105.52-5.71 105.52-59.87l0-648.27c0-54.15-59.04-87.64-105.52-59.86z m60.05 708.14c0 8.61000001-3.95000001 14.21-7.27 17.37-4.65 4.45-10.91 7-17.14 7.00000001-4.25 0-8.39-1.18-12.33-3.54000001l-542.39-324.13000001c-10.67-6.38-11.82-16.69-11.82-20.83999999 0-4.13999999 1.15-14.46 11.82-20.84000001l542.4-324.12999999c3.94-2.35 8.08-3.54 12.33-3.54 11.74 0 24.4 9.32 24.4 24.38L806.48 835.64z" p-id="2209" fill="#d3d3d3"></path></svg>