<?xml version="1.0" standalone="no"?><!DOCTYPE svg PUBLIC "-//W3C//DTD SVG 1.1//EN" "http://www.w3.org/Graphics/SVG/1.1/DTD/svg11.dtd"><svg t="1628059509307" class="icon" viewBox="0 0 1024 1024" version="1.1" xmlns="http://www.w3.org/2000/svg" p-id="9198" xmlns:xlink="http://www.w3.org/1999/xlink" width="200" height="200"><defs><style type="text/css"></style></defs><path d="M851.911111 735.288889h-62.577778c-15.644444 0-28.444444-12.8-28.444444-28.444445s12.8-28.444444 28.444444-28.444444h64c58.311111 0 109.511111-44.088889 113.777778-102.4 4.266667-64-46.933333-116.622222-109.511111-116.622222h-11.377778l-31.288889 2.844444v-31.288889c0-61.155556-49.777778-110.933333-109.511111-110.933333-12.8 0-25.6 2.844444-36.977778 7.111111l-29.866666 11.377778-7.111111-31.288889c-18.488889-81.066667-91.022222-137.955556-173.511111-137.955556-95.288889 0-179.2 89.6-179.2 192v8.533334l1.422222 42.666666-39.822222-14.222222c-14.222222-5.688889-29.866667-8.533333-45.511112-8.533333-66.844444 0-125.155556 49.777778-135.111111 116.622222-12.8 85.333333 52.622222 157.866667 135.111111 157.866667h41.244445c15.644444 0 28.444444 12.8 28.444444 28.444444s-12.8 28.444444-28.444444 28.444445h-35.555556c-103.822222 0-194.844444-79.644444-199.111111-184.888889-5.688889-110.933333 83.911111-203.377778 193.422222-203.377778 9.955556 0 18.488889 0 28.444445 1.422222 12.8-120.888889 116.622222-223.288889 234.666667-223.288889 100.977778 0 187.733333 62.577778 221.866666 153.6 8.533333-1.422222 18.488889-2.844444 27.022222-2.844444 82.488889 0 150.755556 59.733333 163.555556 137.955555 88.177778 7.111111 157.866667 82.488889 153.6 174.933334-4.266667 91.022222-82.488889 160.711111-172.088889 160.711111z" p-id="9199" fill="#d3d3d3"></path><path d="M540.444444 920.177778h-56.888888v-358.4c0-15.644444 12.8-28.444444 28.444444-28.444445s28.444444 12.8 28.444444 28.444445v358.4z" p-id="9200" fill="#d3d3d3"></path><path d="M512 958.577778l-163.555556-150.755556c-11.377778-9.955556-12.8-28.444444-1.422222-39.822222 9.955556-11.377778 28.444444-12.8 39.822222-1.422222l125.155556 115.2 125.155556-115.2c11.377778-9.955556 29.866667-9.955556 39.822222 1.422222 9.955556 11.377778 9.955556 29.866667-1.422222 39.822222l-163.555556 150.755556z" p-id="9201" fill="#d3d3d3"></path></svg>