<?xml version="1.0" standalone="no"?><!DOCTYPE svg PUBLIC "-//W3C//DTD SVG 1.1//EN" "http://www.w3.org/Graphics/SVG/1.1/DTD/svg11.dtd"><svg t="1628059804182" class="icon" viewBox="0 0 1024 1024" version="1.1" xmlns="http://www.w3.org/2000/svg" p-id="18477" xmlns:xlink="http://www.w3.org/1999/xlink" width="200" height="200"><defs><style type="text/css"></style></defs><path d="M512 0a512 512 0 1 0 512 512A512 512 0 0 0 512 0z m0 989.866667a477.866667 477.866667 0 1 1 477.866667-477.866667 477.866667 477.866667 0 0 1-477.866667 477.866667z" fill="#d3d3d3" p-id="18478"></path><path d="M529.066667 290.133333A17.066667 17.066667 0 0 0 512 273.066667a238.933333 238.933333 0 0 0-238.933333 238.933333 17.066667 17.066667 0 0 0 34.133333 0 204.8 204.8 0 0 1 204.8-204.8 17.066667 17.066667 0 0 0 17.066667-17.066667zM494.933333 733.866667a17.066667 17.066667 0 0 0 17.066667 17.066666 238.933333 238.933333 0 0 0 238.933333-238.933333 17.066667 17.066667 0 0 0-34.133333 0 204.8 204.8 0 0 1-204.8 204.8 17.066667 17.066667 0 0 0-17.066667 17.066667z" fill="#d3d3d3" p-id="18479"></path><path d="M512 204.8a17.066667 17.066667 0 0 0 0-34.133333A341.333333 341.333333 0 0 0 170.666667 512a17.066667 17.066667 0 0 0 34.133333 0 307.2 307.2 0 0 1 307.2-307.2zM836.266667 494.933333a17.066667 17.066667 0 0 0-17.066667 17.066667 307.2 307.2 0 0 1-307.2 307.2 17.066667 17.066667 0 0 0 0 34.133333 341.333333 341.333333 0 0 0 341.333333-341.333333 17.066667 17.066667 0 0 0-17.066666-17.066667zM614.4 512a102.4 102.4 0 1 0-102.4 102.4 102.4 102.4 0 0 0 102.4-102.4z m-170.666667 0a68.266667 68.266667 0 1 1 68.266667 68.266667 68.266667 68.266667 0 0 1-68.266667-68.266667z" fill="#d3d3d3" p-id="18480"></path></svg>