<?xml version="1.0" standalone="no"?><!DOCTYPE svg PUBLIC "-//W3C//DTD SVG 1.1//EN" "http://www.w3.org/Graphics/SVG/1.1/DTD/svg11.dtd"><svg t="1628045056575" class="icon" viewBox="0 0 1024 1024" version="1.1" xmlns="http://www.w3.org/2000/svg" p-id="2657" xmlns:xlink="http://www.w3.org/1999/xlink" width="200" height="200"><defs><style type="text/css"></style></defs><path d="M512.28 64.44C265.1 64.44 64.73 264.82 64.73 512S265.1 959.56 512.28 959.56 959.84 759.18 959.84 512 759.46 64.44 512.28 64.44z m0 877.22C275.37 941.66 82.63 748.91 82.63 512S275.37 82.34 512.28 82.34 941.94 275.09 941.94 512 749.2 941.66 512.28 941.66z" p-id="2658" fill="#fefefe"></path><path d="M665.19 490.14L443.65 356.05c-17.03-10.31-38.78 1.95-38.78 21.86v268.17c0 19.9 21.75 32.17 38.78 21.86l221.54-134.09c16.43-9.93 16.43-33.77 0-43.71z m-9.26 28.39l-221.55 134.1c-1.26 0.76-2.57 1.15-3.91 1.15-3.11 0-7.7-2.45-7.7-7.69V377.91c0-5.25 4.59-7.69 7.7-7.69 1.34 0 2.66 0.39 3.91 1.15l221.54 134.09c3.21 1.94 3.69 4.94 3.69 6.55 0 1.6-0.48 4.58-3.68 6.52z" p-id="2659" fill="#fefefe"></path></svg>