<?xml version="1.0" standalone="no"?><!DOCTYPE svg PUBLIC "-//W3C//DTD SVG 1.1//EN" "http://www.w3.org/Graphics/SVG/1.1/DTD/svg11.dtd"><svg t="1628133806375" class="icon" viewBox="0 0 1024 1024" version="1.1" xmlns="http://www.w3.org/2000/svg" p-id="13290" xmlns:xlink="http://www.w3.org/1999/xlink" width="200" height="200"><defs><style type="text/css"></style></defs><path d="M770.304 965.76H146.624c-55.296 0-100.096-44.8-100.096-100.032V512c0-56.064 44.096-102.208 100.096-104.704h100.096a216.448 216.448 0 0 0 218.752-223.424v-27.968A102.4 102.4 0 0 1 567.872 58.24h2.304c42.176 0.64 79.36 27.648 93.12 67.52l6.976 18.56c19.584 58.624 22.016 121.6 6.976 181.568v13.952a153.6 153.6 0 0 1-13.952 44.224h218.752c31.168-0.192 60.544 14.528 79.104 39.552A102.4 102.4 0 0 1 977.472 512l-111.744 379.328a100.096 100.096 0 0 1-95.36 74.496z m-623.68-512a58.24 58.24 0 0 0-53.504 58.24v353.728c0 29.568 23.936 53.568 53.504 53.568h623.68a53.504 53.504 0 0 0 51.2-39.616l109.44-379.328a53.504 53.504 0 0 0-9.344-48.832 51.2 51.2 0 0 0-41.92-20.992h-274.56V384c11.52-14.208 19.52-30.976 23.232-48.896v-4.608l4.672-16.32a276.928 276.928 0 0 0-7.04-155.904l-6.912-18.624a53.504 53.504 0 0 0-48.896-34.944h-2.304a55.872 55.872 0 0 0-55.872 51.2v27.968A263.04 263.04 0 0 1 244.352 453.76H146.624z" fill="#707070" p-id="13291"></path><path d="M232.704 453.76h46.592v465.536h-46.592z" fill="#707070" p-id="13292"></path></svg>