<?xml version="1.0" standalone="no"?><!DOCTYPE svg PUBLIC "-//W3C//DTD SVG 1.1//EN" "http://www.w3.org/Graphics/SVG/1.1/DTD/svg11.dtd"><svg t="1628046371961" class="icon" viewBox="0 0 1024 1024" version="1.1" xmlns="http://www.w3.org/2000/svg" p-id="3772" xmlns:xlink="http://www.w3.org/1999/xlink" width="200" height="200"><defs><style type="text/css"></style></defs><path d="M959.33 579.89c0 12.35-10.01 22.37-22.37 22.37H87.03c-12.35 0-22.37-10.01-22.37-22.37 0-12.35 10.01-22.37 22.37-22.37h849.93c12.36 0.01 22.37 10.02 22.37 22.37zM959.33 907.94c0 12.35-10.01 22.37-22.37 22.37H87.03c-12.35 0-22.37-10.01-22.37-22.37 0-12.35 10.01-22.37 22.37-22.37h849.93c12.36 0 22.37 10.01 22.37 22.37zM959.33 236.94c0 12.35-10.01 22.37-22.37 22.37H504.54c-12.35 0-22.37-10.01-22.37-22.37 0-12.35 10.01-22.37 22.37-22.37h432.42c12.36 0 22.37 10.01 22.37 22.37zM339.2 220.53L122.91 95.65c-12.63-7.29-28.42 1.82-28.42 16.41v249.75c0 14.59 15.79 23.7 28.42 16.41L339.2 253.35c12.63-7.3 12.63-25.53 0-32.82z" p-id="3773" fill="#d3d3d3"></path></svg>