<?xml version="1.0" standalone="no"?><!DOCTYPE svg PUBLIC "-//W3C//DTD SVG 1.1//EN" "http://www.w3.org/Graphics/SVG/1.1/DTD/svg11.dtd"><svg t="1627961903413" class="icon" viewBox="0 0 1024 1024" version="1.1" xmlns="http://www.w3.org/2000/svg" p-id="5978" xmlns:xlink="http://www.w3.org/1999/xlink" width="200" height="200"><defs><style type="text/css"></style></defs><path d="M511.658667 901.12c-18.090667 0-34.816-7.850667-46.421334-21.845333l-39.594666-47.786667c-5.12-3.413333-11.264-5.461333-17.749334-5.461333H177.152c-43.690667 0-79.530667-35.498667-79.530667-79.530667V244.053333c0-43.690667 35.498667-79.530667 79.530667-79.530666h673.792c43.690667 0 79.530667 35.498667 79.530667 79.530666v502.442667c0 43.690667-35.498667 79.530667-79.530667 79.530667h-238.933333c-6.144 0-12.288 1.706667-17.408 5.12l-35.157334 46.421333c-11.264 14.677333-27.989333 23.210667-46.421333 23.552h-1.365333z m-334.506667-688.469333c-17.408 0-31.744 14.336-31.744 31.744v502.442666c0 17.408 14.336 31.744 31.744 31.744h231.082667c17.749333 0 34.816 5.802667 48.810666 16.725334l2.048 1.706666 43.008 52.224c3.413333 4.096 7.509333 4.437333 9.557334 4.437334 2.048 0 6.485333-0.682667 9.557333-4.778667l39.253333-51.541333 2.389334-2.048c13.994667-10.922667 31.402667-16.725333 48.810666-16.725334h238.933334c17.408 0 31.744-14.336 31.744-31.744V244.053333c0-17.408-14.336-31.744-31.744-31.744H177.152z" p-id="5979"></path><path d="M309.589333 491.178667m-34.474666 0a34.474667 34.474667 0 1 0 68.949333 0 34.474667 34.474667 0 1 0-68.949333 0Z" p-id="5980"></path><path d="M519.509333 491.178667m-34.474666 0a34.474667 34.474667 0 1 0 68.949333 0 34.474667 34.474667 0 1 0-68.949333 0Z" p-id="5981"></path><path d="M729.088 491.178667m-34.474667 0a34.474667 34.474667 0 1 0 68.949334 0 34.474667 34.474667 0 1 0-68.949334 0Z" p-id="5982"></path></svg>