<?xml version="1.0" standalone="no"?><!DOCTYPE svg PUBLIC "-//W3C//DTD SVG 1.1//EN" "http://www.w3.org/Graphics/SVG/1.1/DTD/svg11.dtd"><svg t="1628059717064" class="icon" viewBox="0 0 1024 1024" version="1.1" xmlns="http://www.w3.org/2000/svg" p-id="17528" xmlns:xlink="http://www.w3.org/1999/xlink" width="200" height="200"><defs><style type="text/css"></style></defs><path d="M72.404326 1018.88c-22.6304 0-41.6768-5.632-55.808-20.224-33.3824-34.3552-10.7008-95.6416 17.9712-173.2096 12.1344-32.8192 32.4096-87.7056 29.1328-102.4A495.1552 495.1552 0 0 1 15.367526 507.8016a502.7328 502.7328 0 1 1 502.6816 502.6816 498.1248 498.1248 0 0 1-207.2064-44.544c-14.848-5.7856-74.752 13.056-110.592 24.1664-48.2816 15.0016-92.4672 28.7744-127.8464 28.7744z m-5.12-67.328c20.736 2.816 80.128-15.36 113.0496-25.6 65.2288-20.48 121.4976-37.7856 158.3616-21.1968a431.2064 431.2064 0 0 0 179.2 38.5536 435.2 435.2 0 1 0-435.2-435.2 431.3088 431.3088 0 0 0 42.3936 187.5968c15.7696 33.024 0 79.8208-27.2896 153.6-11.776 31.3344-30.6688 82.1248-30.6176 102.2464z" p-id="17529" fill="#d3d3d3"></path><path d="M721.364326 430.08h-424.96a33.6384 33.6384 0 0 1 0-67.2768h424.96a33.6384 33.6384 0 1 1 0 67.2768zM721.364326 650.24h-424.96a33.6384 33.6384 0 0 1 0-67.2768h424.96a33.6384 33.6384 0 1 1 0 67.2768z" p-id="17530" fill="#d3d3d3"></path></svg>