<?xml version="1.0" standalone="no"?><!DOCTYPE svg PUBLIC "-//W3C//DTD SVG 1.1//EN" "http://www.w3.org/Graphics/SVG/1.1/DTD/svg11.dtd"><svg t="1627279696294" class="icon" viewBox="0 0 1024 1024" version="1.1" xmlns="http://www.w3.org/2000/svg" p-id="17167" xmlns:xlink="http://www.w3.org/1999/xlink" width="200" height="200"><defs><style type="text/css">@font-face { font-family: feedback-iconfont; src: url("//at.alicdn.com/t/font_1031158_1uhr8ri0pk5.eot?#iefix") format("embedded-opentype"), url("//at.alicdn.com/t/font_1031158_1uhr8ri0pk5.woff2") format("woff2"), url("//at.alicdn.com/t/font_1031158_1uhr8ri0pk5.woff") format("woff"), url("//at.alicdn.com/t/font_1031158_1uhr8ri0pk5.ttf") format("truetype"), url("//at.alicdn.com/t/font_1031158_1uhr8ri0pk5.svg#iconfont") format("svg"); }
</style></defs><path d="M779.8 187.8H246.4c-83 0-148.2 65.2-148.2 148.2v414.9c0 83 65.2 148.2 148.2 148.2h533.4c83 0 148.2-65.2 148.2-148.2V336c0-83-65.2-148.2-148.2-148.2z m88.9 563c0 50.4-38.5 88.9-88.9 88.9H246.4c-50.4 0-88.9-38.5-88.9-88.9V336c0-50.4 38.5-88.9 88.9-88.9h533.4c50.4 0 88.9 38.5 88.9 88.9v414.8z m0 0" p-id="17168" fill="#bfbfbf"></path><path d="M673.1 516.7L436.1 413c-20.7-8.9-41.5 5.9-41.5 26.7v207.4c0 20.7 20.7 35.6 41.5 26.7l237.1-103.7c23.7-8.9 23.7-44.5-0.1-53.4z m0 0" p-id="17169" fill="#bfbfbf"></path></svg>