<?xml version="1.0" standalone="no"?><!DOCTYPE svg PUBLIC "-//W3C//DTD SVG 1.1//EN" "http://www.w3.org/Graphics/SVG/1.1/DTD/svg11.dtd"><svg t="1627524896760" class="icon" viewBox="0 0 1024 1024" version="1.1" xmlns="http://www.w3.org/2000/svg" p-id="8149" xmlns:xlink="http://www.w3.org/1999/xlink" width="200" height="200"><defs><style type="text/css">@font-face { font-family: feedback-iconfont; src: url("//at.alicdn.com/t/font_1031158_1uhr8ri0pk5.eot?#iefix") format("embedded-opentype"), url("//at.alicdn.com/t/font_1031158_1uhr8ri0pk5.woff2") format("woff2"), url("//at.alicdn.com/t/font_1031158_1uhr8ri0pk5.woff") format("woff"), url("//at.alicdn.com/t/font_1031158_1uhr8ri0pk5.ttf") format("truetype"), url("//at.alicdn.com/t/font_1031158_1uhr8ri0pk5.svg#iconfont") format("svg"); }
</style></defs><path d="M512 1C229.8 1 1 229.8 1 512s228.8 511 511 511 511-228.8 511-511S794.2 1 512 1z m-4.5 980.7c-256.9 0-465.2-208.3-465.2-465.2S250.6 51.3 507.5 51.3s465.2 208.3 465.2 465.2-208.3 465.2-465.2 465.2z" fill="#8a8a8a" p-id="8150"></path><path d="M843.6 454c-0.5-1.2-1.2-2.9-2-5-1.2-3-2.7-6.8-4.4-11.2-2.9-7.4-6.4-16.3-9.8-25.5-3.5-9.2-7-18.5-10.1-26.8-1.3-3.6-2.5-6.9-3.6-10-1.5-4.1-2.7-7.6-3.7-10.4-0.8-1.9-1.9-3.6-3.3-5-0.1-0.2-0.2-0.4-0.2-0.5v0.3c-7.9-7.7-23.6-8.9-32.9-10.2-20.9-2.9-44.7-3.6-70.8-2.1-40.8 2.4-87 10.1-136.3 23.3-48.7 13.1-100.3 31.3-152.2 55-38.4 17.5-76 36.5-118.1 46.5 0.7-0.7 1.4-1.3 2.1-2 11.3-10.7 22.7-21.5 35-31 11.1-8.6 26-17.8 41.7-26.8 15.8-9 32.4-17.8 47.3-25.4 14.8-7.7 27.8-14.2 36.3-18.7-4.9-0.1-13.6 0.9-24.9 2.9s-25.3 4.8-40.8 8.3c-15.6 3.5-32.7 7.7-50.3 12.3-17.6 4.6-35.7 9.7-53.1 14.9-17.4 5.2-34.2 10.7-49.2 16-20.5 7.4-37.6 14.6-48.2 21-7.8 4.8-12.1 9.1-11.6 12.7 0.1 0.4 0.5 1.4 1.1 2.8 1.1 2.8 2.6 6.1 4.2 9.7 1.7 3.7 3.5 7.7 5.5 12 4.7 10 10.3 21.3 16 32.6 5.7 11.2 11.4 22.5 16.5 32.1 3 5.7 5.7 10.8 8 15.2 1.6 3 3.1 5.6 4.3 7.7 8.5 8 19.4 13.8 32.8 17.1 6.9 1.7 14.5 2.7 22.8 2.9-6.2 9.2-11.2 18.3-14.9 27.2-6.2 15-8.8 29.3-7.3 42.3 0.5 4.5 1.6 8.7 3.1 12.7 4.4 16.8 16.9 29.9 27.8 43.7 5.6 7.1 11.5 14.5 17.4 22 8.3 10.5 16.7 21 24.4 30.6 12.5 15.7 23.2 29.1 29 36.3-1.5-2.3-3-4.9-4.5-7.8 4 5 7.7 9.7 10.9 13.7 5.5 6.8 14.6 12.2 26.4 16.3 20.2 7 48.2 10 78.8 10 30.1 0 62.7-3 92.8-8.4 27.6-4.9 54.7-11.8 80-22.7 22.6-9.7 51.3-24.5 74.9-41.8 15.9-11.6 29.5-24.4 37.7-37.6 5.9-9.5 7.5-19.3 7.9-29.5 0.1 1.3 0.2 2.6 0.2 4-0.1-8.1-0.1-16.2-0.2-24.3-0.1-8.1-0.8-92.9-0.9-96.1-0.2-8.9-3.3-19.6-12.1-26.3-12.8-9.8-34.5-11.8-49.7-13-28-2.3-56.8 1.5-83.7 8.6-27 7.1-52.2 17.3-72.6 27.7-20.7 10.6-36.6 21.3-44.4 28.8 41.1-6.8 77.8-7.9 110.1-4.8 32.3 3 59.9 10.2 82.6 20 12.7 5.5 23.8 11.8 33.2 18.7-4.6 4.2-9.6 8.2-14.9 12.2-28 20.7-65.3 38.1-106.7 51.3-41.4 13.3-87 22.5-131.1 26.9-44.1 4.4-86.8 3.9-122.3-2.1-1.7-0.3-3.5-0.6-5.2-0.9 1.3-6.8 3.1-13.5 5.4-20 8.5-23.3 26.6-55.6 59.4-86.3 16.5-15.4 36.6-30.5 61.1-43.9 15.2-8.4 31.3-15.8 47.9-22.4 40.9-16.2 85-27.9 126.9-37.2 33.2-7.4 64.9-13.1 92.6-18.4 7.3-1.4 14.3-2.8 21-4.1 11.7-2.4 23.9-4.4 35.3-8.1 4.7-1.5 9.2-3.2 13.5-5.4 3.3-1.7 6.9-3.7 10.2-6.2 7.3-5.5 13-13.1 10.3-22.2 0.2 0.6 0.9 1.2 1.6 1.8zM392.1 305.1c34.2 12.1 74.5 14.6 112.8 10.4 30.3-3.2 59.3-10.6 83.3-20.5 6.2-2.6 13.7-5.2 21.7-7.6 13-3.8 29.6-6.4 43.1-6.6-0.3 0.3-0.5 0.6-0.8 0.9-10 11.3-23.2 23.4-38.4 35.4-14.6 11.6-31 23.1-48 33.8 9.1-1.2 18-2.8 26.6-4.3 8.6-1.6 16.8-3.4 24.6-5.3 7.8-1.9 15.3-3.9 22.4-6 7-2.1 13.7-4.3 19.9-6.6s11.9-4.6 17.2-7c17-7.7 28.8-15.8 34-23.3 6.6-9.7-2-20-7.1-29.3-5.8-10.6-12.8-22.8-19.3-34.3s-12.6-22.2-16.8-29.9c0.2 0.3 0.3 0.6 0.5 1-4.7-7.8-14.8-13.1-28.9-15.7-9.7-1.8-21.2-2.3-33.9-1.4-38.3 2.5-72.7 15.6-107.7 29.2-30.6 11.9-62.4 21.3-93 25.9-31.5 4.8-61.5 4.4-87.2-3.5 14.4 32.3 41.8 53 75 64.7z" fill="#8a8a8a" p-id="8151"></path></svg>