<?xml version="1.0" standalone="no"?><!DOCTYPE svg PUBLIC "-//W3C//DTD SVG 1.1//EN" "http://www.w3.org/Graphics/SVG/1.1/DTD/svg11.dtd"><svg t="1627383245465" class="icon" viewBox="0 0 1024 1024" version="1.1" xmlns="http://www.w3.org/2000/svg" p-id="1024" xmlns:xlink="http://www.w3.org/1999/xlink" width="200" height="200"><defs><style type="text/css">@font-face { font-family: feedback-iconfont; src: url("//at.alicdn.com/t/font_1031158_1uhr8ri0pk5.eot?#iefix") format("embedded-opentype"), url("//at.alicdn.com/t/font_1031158_1uhr8ri0pk5.woff2") format("woff2"), url("//at.alicdn.com/t/font_1031158_1uhr8ri0pk5.woff") format("woff"), url("//at.alicdn.com/t/font_1031158_1uhr8ri0pk5.ttf") format("truetype"), url("//at.alicdn.com/t/font_1031158_1uhr8ri0pk5.svg#iconfont") format("svg"); }
</style></defs><path d="M938.61 570.44c-10.7 0-19.82 8.18-20.52 18.86C908.35 740 782.63 859.64 629.5 859.64H402.48c-156.61 0-290.18-121.55-296.09-278.05-6.22-164.53 125.82-300.36 288.99-300.36H533.1v-0.01h165.04v100.5c0 13.14 14.36 21.23 25.6 14.43L924 275c10.85-6.56 10.85-22.3 0-28.86L723.74 124.98c-11.24-6.8-25.6 1.29-25.6 14.43v100.5H489.79v0.01h-86.96c-185.3 0-341.42 151.64-337.9 336.91 3.41 179.59 150.05 324.13 330.46 324.13H629.5c175.07 0 318.35-136.11 329.78-308.29 0.8-11.99-8.65-22.23-20.67-22.23z" p-id="1025" data-spm-anchor-id="a313x.7781069.0.i0" class="" fill="#8a8a8a"></path><path d="M750.46632813 314.07278035V212.2465936h-10.5010534l-27.32623656 22.14863385 7.19111489 8.77113449L738.09761055 227.77940175h0.28764458v86.2933786z" p-id="1026" fill="#8a8a8a"></path></svg>