<?xml version="1.0" standalone="no"?><!DOCTYPE svg PUBLIC "-//W3C//DTD SVG 1.1//EN" "http://www.w3.org/Graphics/SVG/1.1/DTD/svg11.dtd"><svg t="1627475922812" class="icon" viewBox="0 0 1024 1024" version="1.1" xmlns="http://www.w3.org/2000/svg" p-id="4135" xmlns:xlink="http://www.w3.org/1999/xlink" width="200" height="200"><defs><style type="text/css">@font-face { font-family: feedback-iconfont; src: url("//at.alicdn.com/t/font_1031158_1uhr8ri0pk5.eot?#iefix") format("embedded-opentype"), url("//at.alicdn.com/t/font_1031158_1uhr8ri0pk5.woff2") format("woff2"), url("//at.alicdn.com/t/font_1031158_1uhr8ri0pk5.woff") format("woff"), url("//at.alicdn.com/t/font_1031158_1uhr8ri0pk5.ttf") format("truetype"), url("//at.alicdn.com/t/font_1031158_1uhr8ri0pk5.svg#iconfont") format("svg"); }
</style></defs><path d="M727.578947 53.894737h134.736842c59.284211 0 107.789474 48.505263 107.789474 107.789474v134.736842h53.894737V161.684211c0-91.621053-70.063158-161.684211-161.684211-161.684211h-134.736842v53.894737zM53.894737 296.421053V161.684211c0-59.284211 48.505263-107.789474 107.789474-107.789474h134.736842V0H167.073684C75.452632 0 0 75.452632 0 167.073684V296.421053h53.894737z m916.210526 431.157894v134.736842c0 56.589474-51.2 107.789474-107.789474 107.789474h-134.736842v53.894737h134.736842c88.926316 0 161.684211-72.757895 161.684211-161.684211v-134.736842h-53.894737z m-673.68421 242.526316H161.684211c-59.284211 0-107.789474-48.505263-107.789474-107.789474v-134.736842H0v129.347369C0 948.547368 75.452632 1024 167.073684 1024H296.421053v-53.894737zM0 485.052632h1024v53.894736H0v-53.894736z" fill="#515151" p-id="4136"></path></svg>