<?xml version="1.0" standalone="no"?><!DOCTYPE svg PUBLIC "-//W3C//DTD SVG 1.1//EN" "http://www.w3.org/Graphics/SVG/1.1/DTD/svg11.dtd"><svg t="1626953743325" class="icon" viewBox="0 0 1024 1024" version="1.1" xmlns="http://www.w3.org/2000/svg" p-id="15782" xmlns:xlink="http://www.w3.org/1999/xlink" width="200" height="200"><defs><style type="text/css">@font-face { font-family: feedback-iconfont; src: url("//at.alicdn.com/t/font_1031158_1uhr8ri0pk5.eot?#iefix") format("embedded-opentype"), url("//at.alicdn.com/t/font_1031158_1uhr8ri0pk5.woff2") format("woff2"), url("//at.alicdn.com/t/font_1031158_1uhr8ri0pk5.woff") format("woff"), url("//at.alicdn.com/t/font_1031158_1uhr8ri0pk5.ttf") format("truetype"), url("//at.alicdn.com/t/font_1031158_1uhr8ri0pk5.svg#iconfont") format("svg"); }
</style></defs><path d="M669.5936 670.72a264.22272 264.22272 0 0 1-175.9744-66.74432c-109.4656-97.1264-119.5008-265.19552-22.38464-374.65088s265.18528-119.5008 374.65088-22.39488 119.5008 265.18528 22.39488 374.64064C815.90272 640.60416 742.90176 670.72 669.5936 670.72z m0.28672-501.52448c-65.30048 0-130.304 26.81856-176.93696 79.38048-86.49728 97.49504-77.54752 247.17312 19.93728 333.6704s247.17312 77.54752 333.6704-19.93728c86.49728-97.49504 77.55776-247.18336-19.92704-333.6704a235.49952 235.49952 0 0 0-156.74368-59.4432z" p-id="15783"></path><path d="M367.26784 877.8752c-17.79712 0-35.84-6.22592-50.4832-18.7904l-48.3328-41.46176c-15.17568-13.02528-24.34048-30.86336-25.8048-50.20672a68.61824 68.61824 0 0 1 16.49664-50.28864C427.6736 521.39008 435.6096 521.2672 446.59712 521.08288l6.51264-0.1024 5.2224 5.10976-0.90112 19.61984c4.93568 5.376-8.56064 4.89472-5.92896 3.4304-17.96096 9.92256-132.66944 143.14496-170.36288 186.9312a39.77216 39.77216 0 0 0-9.55392 29.16352c0.88064 11.61216 6.47168 22.40512 15.75936 30.37184l48.3328 41.45152c18.60608 15.9744 46.94016 15.43168 63.19104-1.20832 93.67552-95.80544 166.0416-174.2848 172.09344-186.59328-0.68608 1.40288-1.86368-14.36672 0.9728-9.40032l11.99104 13.66016 1.20832-15.14496 13.04576 9.7792c3.98336 10.63936 6.8608 18.31936-178.54464 207.98464-14.12096 14.45888-33.10592 21.73952-52.36736 21.73952zM412.5696 361.90208l19.49696-21.504 327.68 296.93952-19.48672 21.51424z" p-id="15784"></path><path d="M222.33088 884.41856a67.7888 67.7888 0 0 1-8.04864-0.48128c-38.18496-4.5056-65.95584-39.96672-111.9744-98.7136l-6.88128-8.76544 22.8352-17.92 6.89152 8.78592c41.3696 52.81792 66.34496 84.69504 92.52864 87.78752 19.41504 2.23232 44.76928-10.3424 84.93056-42.24l18.05312 22.74304c-42.94656 34.10944-72.28416 48.80384-98.33472 48.80384z" p-id="15785"></path></svg>