<?xml version="1.0" standalone="no"?><!DOCTYPE svg PUBLIC "-//W3C//DTD SVG 1.1//EN" "http://www.w3.org/Graphics/SVG/1.1/DTD/svg11.dtd"><svg t="1627375686530" class="icon" viewBox="0 0 1027 1024" version="1.1" xmlns="http://www.w3.org/2000/svg" p-id="23138" xmlns:xlink="http://www.w3.org/1999/xlink" width="200.5859375" height="200"><defs><style type="text/css">@font-face { font-family: feedback-iconfont; src: url("//at.alicdn.com/t/font_1031158_1uhr8ri0pk5.eot?#iefix") format("embedded-opentype"), url("//at.alicdn.com/t/font_1031158_1uhr8ri0pk5.woff2") format("woff2"), url("//at.alicdn.com/t/font_1031158_1uhr8ri0pk5.woff") format("woff"), url("//at.alicdn.com/t/font_1031158_1uhr8ri0pk5.ttf") format("truetype"), url("//at.alicdn.com/t/font_1031158_1uhr8ri0pk5.svg#iconfont") format("svg"); }
</style></defs><path d="M934.75 186.182H515.84c-93.09 0-93.09-93.091-186.182-93.091H96.931A93.09 93.09 0 0 0 3.84 186.18v651.637a93.09 93.09 0 0 0 93.09 93.091h837.82a93.09 93.09 0 0 0 93.09-93.09V279.272a93.09 93.09 0 0 0-93.09-93.091z m46.545 651.636a46.545 46.545 0 0 1-46.546 46.546H96.931a46.545 46.545 0 0 1-46.546-46.546V372.364h930.91z m0-512H50.385V186.182a46.545 46.545 0 0 1 46.546-46.546h232.727c69.818 0 69.818 93.091 186.182 93.091h418.91a46.545 46.545 0 0 1 46.545 46.546z" p-id="23139" fill="#8a8a8a"></path><path d="M362.24 591.71h349.09v46.545H362.24v-46.546z" p-id="23140" fill="#8a8a8a"></path><path d="M513.396 789.527v-349.09h46.546v349.09h-46.546z" p-id="23141" fill="#8a8a8a"></path></svg>