<?xml version="1.0" standalone="no"?><!DOCTYPE svg PUBLIC "-//W3C//DTD SVG 1.1//EN" "http://www.w3.org/Graphics/SVG/1.1/DTD/svg11.dtd"><svg t="1627525682333" class="icon" viewBox="0 0 1024 1024" version="1.1" xmlns="http://www.w3.org/2000/svg" p-id="10456" xmlns:xlink="http://www.w3.org/1999/xlink" width="200" height="200"><defs><style type="text/css">@font-face { font-family: feedback-iconfont; src: url("//at.alicdn.com/t/font_1031158_1uhr8ri0pk5.eot?#iefix") format("embedded-opentype"), url("//at.alicdn.com/t/font_1031158_1uhr8ri0pk5.woff2") format("woff2"), url("//at.alicdn.com/t/font_1031158_1uhr8ri0pk5.woff") format("woff"), url("//at.alicdn.com/t/font_1031158_1uhr8ri0pk5.ttf") format("truetype"), url("//at.alicdn.com/t/font_1031158_1uhr8ri0pk5.svg#iconfont") format("svg"); }
</style></defs><path d="M514.986667 21.12C241.706667 21.12 20.053333 241.92 20.053333 514.133333c0 272.426667 221.653333 493.226667 494.933334 493.226667 273.28 0 494.933333-220.8 494.933333-493.226667C1009.92 241.92 788.266667 21.12 514.986667 21.12z m0 940.8c-248.32 0-449.28-200.32-449.28-447.573333 0-247.04 201.173333-447.36 449.28-447.36 248.106667 0 449.493333 200.32 449.493333 447.36 0 247.04-201.386667 447.573333-449.493333 447.573333z m0 0" fill="#707070" p-id="10457"></path><path d="M662.613333 659.626667h-39.466666c24.533333 59.093333 81.28 96 169.813333 110.72v-22.186667c-72.106667-17.92-115.626667-47.36-130.346667-88.533333zM236.8 748.373333v22.186667c88.533333-14.72 145.28-51.626667 169.813333-110.72h-39.253333c-14.933333 40.96-58.453333 70.4-130.56 88.533333z m-4.906667-92.586666h268.16v58.026666c1.493333 26.24-12.373333 38.4-41.813333 36.906667h-39.253333v27.093333h51.626666c45.866667 0 68.906667-19.626667 68.906667-59.093333v-62.933333h256V610.133333H231.893333v45.653334z m61.653334-133.973334v41.386667h442.88v-41.386667H293.546667z m-59.093334-270.933333v42.88h178.56v46.08h-139.306666v136.32h413.44c47.573333 1.706667 69.76-27.093333 66.346666-66.56v-69.973333h-137.813333v-46.08h182.186667v-42.88H234.453333z m178.56 190.933333h-99.84v-67.413333h99.84v67.413333z m165.973334 0h-129.066667v-67.413333h129.066667v67.413333z m0-101.973333h-129.066667v-46.08h129.066667v46.08z m137.813333 34.346667v35.413333c0 21.333333-10.666667 32-32 32h-68.906667v-67.413333h100.906667z m0 0" fill="#2e2e2e" p-id="10458"></path></svg>