<?xml version="1.0" standalone="no"?><!DOCTYPE svg PUBLIC "-//W3C//DTD SVG 1.1//EN" "http://www.w3.org/Graphics/SVG/1.1/DTD/svg11.dtd"><svg t="1627296340145" class="icon" viewBox="0 0 1024 1024" version="1.1" xmlns="http://www.w3.org/2000/svg" p-id="22820" xmlns:xlink="http://www.w3.org/1999/xlink" width="200" height="200"><defs><style type="text/css">@font-face { font-family: feedback-iconfont; src: url("//at.alicdn.com/t/font_1031158_1uhr8ri0pk5.eot?#iefix") format("embedded-opentype"), url("//at.alicdn.com/t/font_1031158_1uhr8ri0pk5.woff2") format("woff2"), url("//at.alicdn.com/t/font_1031158_1uhr8ri0pk5.woff") format("woff"), url("//at.alicdn.com/t/font_1031158_1uhr8ri0pk5.ttf") format("truetype"), url("//at.alicdn.com/t/font_1031158_1uhr8ri0pk5.svg#iconfont") format("svg"); }
</style></defs><path d="M959.33 579.89c0 12.35-10.01 22.37-22.37 22.37H87.03c-12.35 0-22.37-10.01-22.37-22.37 0-12.35 10.01-22.37 22.37-22.37h849.93c12.36 0.01 22.37 10.02 22.37 22.37zM959.33 907.94c0 12.35-10.01 22.37-22.37 22.37H87.03c-12.35 0-22.37-10.01-22.37-22.37 0-12.35 10.01-22.37 22.37-22.37h849.93c12.36 0 22.37 10.01 22.37 22.37zM959.33 236.94c0 12.35-10.01 22.37-22.37 22.37H504.54c-12.35 0-22.37-10.01-22.37-22.37 0-12.35 10.01-22.37 22.37-22.37h432.42c12.36 0 22.37 10.01 22.37 22.37zM339.2 220.53L122.91 95.65c-12.63-7.29-28.42 1.82-28.42 16.41v249.75c0 14.59 15.79 23.7 28.42 16.41L339.2 253.35c12.63-7.3 12.63-25.53 0-32.82z" p-id="22821" fill="#707070"></path></svg>