<?xml version="1.0" standalone="no"?><!DOCTYPE svg PUBLIC "-//W3C//DTD SVG 1.1//EN" "http://www.w3.org/Graphics/SVG/1.1/DTD/svg11.dtd"><svg t="1627435173702" class="icon" viewBox="0 0 1024 1024" version="1.1" xmlns="http://www.w3.org/2000/svg" p-id="12388" xmlns:xlink="http://www.w3.org/1999/xlink" width="200" height="200"><defs><style type="text/css">@font-face { font-family: feedback-iconfont; src: url("//at.alicdn.com/t/font_1031158_1uhr8ri0pk5.eot?#iefix") format("embedded-opentype"), url("//at.alicdn.com/t/font_1031158_1uhr8ri0pk5.woff2") format("woff2"), url("//at.alicdn.com/t/font_1031158_1uhr8ri0pk5.woff") format("woff"), url("//at.alicdn.com/t/font_1031158_1uhr8ri0pk5.ttf") format("truetype"), url("//at.alicdn.com/t/font_1031158_1uhr8ri0pk5.svg#iconfont") format("svg"); }
</style></defs><path d="M60.553481 644.740741m37.925926 0l0 0q37.925926 0 37.925926 37.925926l0 303.407407q0 37.925926-37.925926 37.925926l0 0q-37.925926 0-37.925926-37.925926l0-303.407407q0-37.925926 37.925926-37.925926Z" p-id="12389" fill="#f1304b"></path><path d="M326.034963 265.481481m37.925926 0l0 0q37.925926 0 37.925926 37.925926l0 682.666667q0 37.925926-37.925926 37.925926l0 0q-37.925926 0-37.925926-37.925926l0-682.666667q0-37.925926 37.925926-37.925926Z" p-id="12390" fill="#f1304b"></path><path d="M553.590519 0m37.925925 0l0 0q37.925926 0 37.925926 37.925926l0 948.148148q0 37.925926-37.925926 37.925926l0 0q-37.925926 0-37.925925-37.925926l0-948.148148q0-37.925926 37.925925-37.925926Z" p-id="12391" fill="#f1304b"></path><path d="M819.072 493.037037m37.925926 0l0 0q37.925926 0 37.925926 37.925926l0 455.111111q0 37.925926-37.925926 37.925926l0 0q-37.925926 0-37.925926-37.925926l0-455.111111q0-37.925926 37.925926-37.925926Z" p-id="12392" fill="#f1304b"></path></svg>