<?xml version="1.0" standalone="no"?><!DOCTYPE svg PUBLIC "-//W3C//DTD SVG 1.1//EN" "http://www.w3.org/Graphics/SVG/1.1/DTD/svg11.dtd"><svg t="1626920990520" class="icon" viewBox="0 0 1024 1024" version="1.1" xmlns="http://www.w3.org/2000/svg" p-id="4265" xmlns:xlink="http://www.w3.org/1999/xlink" width="200" height="200"><defs><style type="text/css">@font-face { font-family: feedback-iconfont; src: url("//at.alicdn.com/t/font_1031158_1uhr8ri0pk5.eot?#iefix") format("embedded-opentype"), url("//at.alicdn.com/t/font_1031158_1uhr8ri0pk5.woff2") format("woff2"), url("//at.alicdn.com/t/font_1031158_1uhr8ri0pk5.woff") format("woff"), url("//at.alicdn.com/t/font_1031158_1uhr8ri0pk5.ttf") format("truetype"), url("//at.alicdn.com/t/font_1031158_1uhr8ri0pk5.svg#iconfont") format("svg"); }
</style></defs><path d="M810.666667 448a42.666667 42.666667 0 0 1 42.56 39.466667L853.333333 490.666667c0 174.058667-130.282667 317.696-298.666666 338.688V960a21.333333 21.333333 0 0 1-21.333334 21.333333h-42.666666a21.333333 21.333333 0 0 1-21.333334-21.333333v-130.645333C300.949333 808.362667 170.666667 664.746667 170.666667 490.666667l0.106666-3.2a42.666667 42.666667 0 0 1 85.12 0L256 490.666667c0 141.376 114.624 256 256 256 139.2 0 252.458667-111.125333 255.914667-249.493334L768 490.666667l0.106667-3.2A42.666667 42.666667 0 0 1 810.666667 448z m-298.666667 192a149.333333 149.333333 0 0 1-149.333333-149.333333V192a149.333333 149.333333 0 0 1 149.333333-149.333333h0.32l4.821333 0.085333A149.333333 149.333333 0 0 1 661.333333 192v298.666667a149.333333 149.333333 0 0 1-148.992 149.333333H512z" fill="#646A73" p-id="4266"></path></svg>