<?xml version="1.0" standalone="no"?><!DOCTYPE svg PUBLIC "-//W3C//DTD SVG 1.1//EN" "http://www.w3.org/Graphics/SVG/1.1/DTD/svg11.dtd"><svg t="1628212168598" class="icon" viewBox="0 0 1488 1024" version="1.1" xmlns="http://www.w3.org/2000/svg" p-id="12988" xmlns:xlink="http://www.w3.org/1999/xlink" width="290.625" height="200"><defs><style type="text/css"></style></defs><path d="M744.320506 319.022149a45.722545 45.722545 0 0 0-32.962765 12.75978L525.277615 514.672111a47.849175 47.849175 0 0 0-11.696466 45.722545 45.722545 45.722545 0 0 0 77.621996 20.202985l106.331501-106.331501v353.020583a46.78586 46.78586 0 0 0 93.571721 0V474.26614l106.331501 106.331501a46.78586 46.78586 0 1 0 65.92553-65.92553L777.283272 328.591984A45.722545 45.722545 0 0 0 744.320506 319.022149z m0-318.994503a478.491754 478.491754 0 0 1 480.618385 425.326004A301.981463 301.981463 0 0 1 1488.641013 723.081852a304.108093 304.108093 0 0 1-308.361353 299.854833H351.957268A346.640693 346.640693 0 0 1 0 680.549252a344.514063 344.514063 0 0 1 273.271957-333.880913 390.236608 390.236608 0 0 1 137.167637-222.232837A513.581149 513.581149 0 0 1 744.320506 0.027646z" p-id="12989" fill="#f73e43"></path></svg>