<?xml version="1.0" standalone="no"?><!DOCTYPE svg PUBLIC "-//W3C//DTD SVG 1.1//EN" "http://www.w3.org/Graphics/SVG/1.1/DTD/svg11.dtd"><svg t="1628165442295" class="icon" viewBox="0 0 1024 1024" version="1.1" xmlns="http://www.w3.org/2000/svg" p-id="18496" xmlns:xlink="http://www.w3.org/1999/xlink" width="200" height="200"><defs><style type="text/css"></style></defs><path d="M544 608c182.512 0 332.592 138.912 350.256 316.8l0.528 5.68A27.264 27.264 0 0 1 867.6 960H156.72a27.568 27.568 0 0 1-27.568-27.568l0.032-1.152 0.064-1.152C144.416 749.712 295.648 608 480 608h64zM512 64c132.544 0 240 107.456 240 240 0 132.544-107.456 240-240 240-132.544 0-240-107.456-240-240 0-132.544 107.456-240 240-240z" fill="#f6d6db" p-id="18497"></path></svg>