<?xml version="1.0" standalone="no"?><!DOCTYPE svg PUBLIC "-//W3C//DTD SVG 1.1//EN" "http://www.w3.org/Graphics/SVG/1.1/DTD/svg11.dtd"><svg t="1628214708955" class="icon" viewBox="0 0 1114 1024" version="1.1" xmlns="http://www.w3.org/2000/svg" p-id="49636" xmlns:xlink="http://www.w3.org/1999/xlink" width="217.578125" height="200"><defs><style type="text/css"></style></defs><path d="M791.997 0c-98.193 0-175.393 48.974-235.475 129.714C496.462 48.952 419.306 0 321.046 0 144.028 0 0 156.538 0 348.961 0 463.76 51.578 544.278 93.05 608.99c120.52 187.926 409.377 390.901 422.222 400.762 12.355 9.505 26.824 14.247 41.249 14.247 14.47 0 28.895-4.764 41.249-14.247 12.845-9.862 301.746-212.836 422.2-400.762 41.472-64.712 93.073-145.252 93.073-260.029C1113.043 156.538 969.016 0 791.997 0z" p-id="49637" fill="#ffffff"></path></svg>