<?xml version="1.0" standalone="no"?><!DOCTYPE svg PUBLIC "-//W3C//DTD SVG 1.1//EN" "http://www.w3.org/Graphics/SVG/1.1/DTD/svg11.dtd"><svg t="1628212298832" class="icon" viewBox="0 0 1024 1024" version="1.1" xmlns="http://www.w3.org/2000/svg" p-id="22099" xmlns:xlink="http://www.w3.org/1999/xlink" width="200" height="200"><defs><style type="text/css"></style></defs><path d="M848 960H176c-49.5 0-89.6-40.1-89.6-89.6v-672c0-49.5 40.1-89.6 89.6-89.6h89.6v89.6c0 24.7 20.1 44.8 44.8 44.8h403.2c24.7 0 44.8-20.1 44.8-44.8v-89.6H848c49.5 0 89.6 40.1 89.6 89.6v672c0 49.5-40.1 89.6-89.6 89.6zM717.6 458.7c-17.5-17.5-45.9-17.5-63.4 0L464.1 648.8l-95-95c-17.5-17.5-45.9-17.5-63.4 0s-17.5 45.9 0 63.4l126.7 126.7c17.5 17.5 45.9 17.5 63.4 0l221.8-221.7c17.5-17.6 17.5-46 0-63.5z m-48.8-260.3H355.2c-24.7 0-44.8-20.1-44.8-44.8v-44.8c0-24.7 20.1-44.8 44.8-44.8h313.6c24.7 0 44.8 20.1 44.8 44.8v44.8c0 24.7-20.1 44.8-44.8 44.8z" fill="#f73e43" p-id="22100"></path></svg>