<?xml version="1.0" standalone="no"?><!DOCTYPE svg PUBLIC "-//W3C//DTD SVG 1.1//EN" "http://www.w3.org/Graphics/SVG/1.1/DTD/svg11.dtd"><svg t="1628212478226" class="icon" viewBox="0 0 1024 1024" version="1.1" xmlns="http://www.w3.org/2000/svg" p-id="38999" xmlns:xlink="http://www.w3.org/1999/xlink" width="200" height="200"><defs><style type="text/css"></style></defs><path d="M634.368 551.424c0 15.36 8.192 29.696 22.016 37.888 13.312 7.68 30.208 7.68 43.52 0 13.312-7.68 22.016-22.016 22.016-37.888 0-15.36-8.192-29.696-22.016-37.888-13.312-7.68-30.208-7.68-43.52 0-13.824 7.68-22.016 22.016-22.016 37.888z m-22.016-417.28c0 15.36 8.192 29.696 22.016 37.888 13.312 7.68 30.208 7.68 43.52 0 13.312-7.68 22.016-22.016 22.016-37.888 0-15.36-8.192-29.696-22.016-37.888-13.312-7.68-30.208-7.68-43.52 0-13.312 7.68-22.016 22.016-22.016 37.888z m0 0" p-id="39000" fill="#f73e43"></path><path d="M1024.512 884.736c0-153.088-90.624-284.672-221.184-344.576 58.368-46.08 95.744-117.76 95.744-197.632 0-136.192-107.52-246.784-242.688-251.904v87.04c86.016 5.12 154.624 77.824 154.624 164.864 0 83.968-59.904 156.16-140.8 166.4-6.144 0.512-13.824 7.68-13.824 13.824v64.512c0-21.504 3.072-0.512 7.68-0.512l5.12 7.68c152.576 9.216 267.776 135.68 267.776 290.816v1.024c0 24.064 19.456 43.52 43.52 43.52s43.52-19.456 43.52-43.52v-1.536zM141.824 342.016c0 88.576 47.104 171.008 124.416 215.04 76.8 44.544 171.52 44.544 248.32 0s124.416-126.464 124.416-215.04c0-137.216-111.104-248.32-248.32-248.32-137.728 0-248.832 111.104-248.832 248.32z m0 0" p-id="39001" fill="#f73e43"></path><path d="M780.288 892.416c0-2.048 0-3.584-0.512-5.632-21.504-196.096-187.392-349.184-389.632-349.184-202.24 0-368.64 153.088-389.632 349.696 0 1.536-0.512 2.56-0.512 4.096V892.928c0 21.504 17.408 38.912 38.912 38.912h702.976c21.504 0 38.912-17.408 38.912-38.912-0.512 0.512-0.512 0-0.512-0.512z m0 0" p-id="39002" fill="#f73e43"></path></svg>