<?xml version="1.0" standalone="no"?><!DOCTYPE svg PUBLIC "-//W3C//DTD SVG 1.1//EN" "http://www.w3.org/Graphics/SVG/1.1/DTD/svg11.dtd"><svg t="1628212597415" class="icon" viewBox="0 0 1024 1024" version="1.1" xmlns="http://www.w3.org/2000/svg" p-id="47049" xmlns:xlink="http://www.w3.org/1999/xlink" width="200" height="200"><defs><style type="text/css"></style></defs><path d="M142.217 9.824c-25.778-14.882-58.74-6.051-73.622 19.727-0.957 1.66-1.546 3.413-2.309 5.125C24.396 108.883 0 194.26 0 285.551s24.396 176.668 66.286 250.875c0.763 1.712 1.352 3.465 2.309 5.125 14.882 25.776 47.844 34.609 73.622 19.727 25.776-14.883 34.609-47.845 19.727-73.622l0.268-0.155c-34.411-59.467-54.423-128.304-54.423-201.951s20.012-142.484 54.423-201.951l-0.268-0.155c14.882-25.776 6.049-58.737-19.727-73.62zM957.714 34.676c-0.763-1.712-1.352-3.465-2.309-5.125-14.882-25.778-47.844-34.608-73.622-19.727-25.776 14.883-34.609 47.844-19.727 73.622l-0.268 0.155c34.411 59.467 54.423 128.304 54.423 201.951S896.2 428.036 861.788 487.503l0.268 0.155c-14.882 25.776-6.049 58.738 19.727 73.622 25.778 14.882 58.74 6.049 73.622-19.727 0.957-1.66 1.546-3.413 2.309-5.125C999.604 462.219 1024 376.842 1024 285.551s-24.396-176.668-66.286-250.875zM328.913 453.489c25.778-14.883 34.61-47.845 19.727-73.622l0.127-0.072c-16.059-27.75-25.398-59.875-25.398-94.243s9.339-66.493 25.398-94.243l-0.127-0.072c14.883-25.778 6.051-58.738-19.727-73.622-25.776-14.882-58.738-6.051-73.622 19.727-1.01 1.75-1.64 3.597-2.434 5.406-23.456 42.418-37.278 90.901-37.278 142.804s13.822 100.387 37.278 142.804c0.794 1.809 1.424 3.656 2.434 5.406 14.883 25.776 47.846 34.608 73.622 19.727zM768.709 137.341c-14.883-25.778-47.845-34.609-73.622-19.727-25.778 14.883-34.61 47.844-19.727 73.622l-0.127 0.072c16.059 27.75 25.398 59.875 25.398 94.243s-9.339 66.493-25.398 94.243l0.127 0.072c-14.883 25.776-6.051 58.738 19.727 73.622 25.776 14.882 58.739 6.049 73.622-19.727 1.01-1.75 1.64-3.597 2.434-5.406 23.456-42.418 37.278-90.901 37.278-142.804s-13.822-100.387-37.278-142.804c-0.794-1.809-1.424-3.656-2.434-5.406zM579.618 329.675c8.304-12.699 13.222-27.817 13.222-44.123 0-44.648-36.194-80.842-80.842-80.842s-80.842 36.194-80.842 80.842c0 16.308 4.919 31.426 13.224 44.125l-167.171 623.89c-7.673 28.632 9.477 58.336 38.109 66.008 28.633 7.671 58.336-9.479 66.008-38.11l57.238-213.617c0.535 0.016 1.035 0.159 1.574 0.159h145.339l57.196 213.457c7.671 28.632 37.375 45.781 66.007 38.11 28.632-7.673 45.781-37.377 38.11-66.008L579.618 329.675zM467.403 660.217L512 493.785l44.595 166.433h-89.192z" p-id="47050" fill="#f73e43"></path></svg>