<?xml version="1.0" standalone="no"?><!DOCTYPE svg PUBLIC "-//W3C//DTD SVG 1.1//EN" "http://www.w3.org/Graphics/SVG/1.1/DTD/svg11.dtd"><svg t="1628232038492" class="icon" viewBox="0 0 1024 1024" version="1.1" xmlns="http://www.w3.org/2000/svg" p-id="62670" xmlns:xlink="http://www.w3.org/1999/xlink" width="200" height="200"><defs><style type="text/css"></style></defs><path d="M819.764 512.391L639.363 875.193l11.061 138.507 116.947-74.951 180.285-362.686-127.892-63.672z m63.556-128.008l-42.449 85.34 128.007 63.666 42.45-85.335-128.008-63.671zM128.669 933.732c-19.771 0-35.747-15.976-35.747-35.747V133.501c0-19.771 15.976-35.747 35.747-35.747h584.759c19.771 0 35.741 15.976 35.741 35.747v220.301c0 19.771 21.445 35.74 41.216 35.74 19.772 0 41.212-15.969 41.212-35.74V86.812c0-39.427-32.054-71.487-71.487-71.487H81.98c-39.542 0-71.487 32.059-71.487 71.487v857.861c0 39.427 32.059 71.487 71.487 71.487h465.344c19.772 0 35.741-19.623 35.741-39.394 0-19.771-15.969-43.035-35.741-43.035H128.669z m0 0" p-id="62671" fill="#515151"></path><path d="M635.011 221.38H205.969c-19.771 0-35.747 23.264-35.747 43.035 0 19.772 15.976 43.042 35.747 43.042h429.042c19.771 0 35.741-23.269 35.741-43.042 0.114-19.772-15.97-43.035-35.741-43.035z m0 214.46H205.969c-19.771 0-35.747 23.271-35.747 43.042s15.976 43.042 35.747 43.042h429.042c19.771 0 35.741-23.271 35.741-43.042 0.114-19.772-15.97-43.042-35.741-43.042zM420.545 650.307H205.969c-19.771 0-35.747 23.269-35.747 43.042 0 19.771 15.976 43.035 35.747 43.035h214.576c19.771 0 35.745-23.264 35.745-43.035 0-19.773-15.974-43.042-35.745-43.042z m0 0" p-id="62672" fill="#515151"></path></svg>