<?xml version="1.0" standalone="no"?><!DOCTYPE svg PUBLIC "-//W3C//DTD SVG 1.1//EN" "http://www.w3.org/Graphics/SVG/1.1/DTD/svg11.dtd"><svg t="1627643078291" class="icon" viewBox="0 0 1024 1024" version="1.1" xmlns="http://www.w3.org/2000/svg" p-id="11798" xmlns:xlink="http://www.w3.org/1999/xlink" width="200" height="200"><defs><style type="text/css">@font-face { font-family: feedback-iconfont; src: url("//at.alicdn.com/t/font_1031158_1uhr8ri0pk5.eot?#iefix") format("embedded-opentype"), url("//at.alicdn.com/t/font_1031158_1uhr8ri0pk5.woff2") format("woff2"), url("//at.alicdn.com/t/font_1031158_1uhr8ri0pk5.woff") format("woff"), url("//at.alicdn.com/t/font_1031158_1uhr8ri0pk5.ttf") format("truetype"), url("//at.alicdn.com/t/font_1031158_1uhr8ri0pk5.svg#iconfont") format("svg"); }
</style></defs><path d="M510.06577778 16.91496297c-260.77866667 0-472.29155555 211.39911111-472.29155556 472.17777778S249.17333333 961.3842963 510.06577778 961.3842963s472.29155555-211.39911111 472.29155555-472.29155555c0-260.77866667-211.51288889-472.17777778-472.29155555-472.17777778z m186.368 509.83822221L437.47555555 677.85007408c-3.75466667 2.16177778-7.62311111 3.18577778-11.49155555 3.18577777-11.94666667 0-22.86933333-9.55733333-22.86933333-22.86933333V355.97274075c0-13.312 10.92266667-22.86933333 22.86933333-22.86933334 3.86844445 0 7.73688889 1.024 11.49155555 3.18577777l258.95822223 151.0968889c15.13244445 8.76088889 15.13244445 30.60622222 0 39.3671111z" fill="#f12929" p-id="11799"></path></svg>