<?xml version="1.0" standalone="no"?><!DOCTYPE svg PUBLIC "-//W3C//DTD SVG 1.1//EN" "http://www.w3.org/Graphics/SVG/1.1/DTD/svg11.dtd"><svg t="1627537962303" class="icon" viewBox="0 0 1024 1024" version="1.1" xmlns="http://www.w3.org/2000/svg" p-id="75504" xmlns:xlink="http://www.w3.org/1999/xlink" width="200" height="200"><defs><style type="text/css">@font-face { font-family: feedback-iconfont; src: url("//at.alicdn.com/t/font_1031158_1uhr8ri0pk5.eot?#iefix") format("embedded-opentype"), url("//at.alicdn.com/t/font_1031158_1uhr8ri0pk5.woff2") format("woff2"), url("//at.alicdn.com/t/font_1031158_1uhr8ri0pk5.woff") format("woff"), url("//at.alicdn.com/t/font_1031158_1uhr8ri0pk5.ttf") format("truetype"), url("//at.alicdn.com/t/font_1031158_1uhr8ri0pk5.svg#iconfont") format("svg"); }
</style></defs><path d="M512 0a512 512 0 1 0 512 512A512 512 0 0 0 512 0z m240.64 700.16a6.72 6.72 0 0 1-4.48 0A352 352 0 0 1 699.84 640a142.08 142.08 0 0 1-45.44 103.68 156.16 156.16 0 0 1-11.52 11.2c13.12 4.16 46.4 16 51.2 28.48s-4.8 17.28-23.04 18.24h-64a678.4 678.4 0 0 1-84.16-1.6h-21.76A1106.88 1106.88 0 0 1 352 803.2c-18.24 0-29.12-2.88-23.04-18.24v-2.56a120.32 120.32 0 0 1 49.28-25.92A199.04 199.04 0 0 1 331.2 688a186.56 186.56 0 0 1-8.32-48c-3.52 5.76-41.6 69.12-52.48 57.92-10.56-11.2 0-67.2 10.56-103.04s22.72-64 22.72-64l26.24-64a185.28 185.28 0 0 1 0-21.76 288 288 0 0 1 35.84-144.32 175.04 175.04 0 0 1 157.76-81.6 169.28 169.28 0 0 1 139.2 83.84 303.36 303.36 0 0 1 33.92 163.52l24.64 64a442.56 442.56 0 0 1 36.48 118.08v15.04c0.96 24.96-0.64 34.56-5.12 36.48z" p-id="75505" fill="#f12929"></path></svg>