<?xml version="1.0" standalone="no"?><!DOCTYPE svg PUBLIC "-//W3C//DTD SVG 1.1//EN" "http://www.w3.org/Graphics/SVG/1.1/DTD/svg11.dtd"><svg t="1627539709781" class="icon" viewBox="0 0 1024 1024" version="1.1" xmlns="http://www.w3.org/2000/svg" p-id="83401" xmlns:xlink="http://www.w3.org/1999/xlink" width="200" height="200"><defs><style type="text/css">@font-face { font-family: feedback-iconfont; src: url("//at.alicdn.com/t/font_1031158_1uhr8ri0pk5.eot?#iefix") format("embedded-opentype"), url("//at.alicdn.com/t/font_1031158_1uhr8ri0pk5.woff2") format("woff2"), url("//at.alicdn.com/t/font_1031158_1uhr8ri0pk5.woff") format("woff"), url("//at.alicdn.com/t/font_1031158_1uhr8ri0pk5.ttf") format("truetype"), url("//at.alicdn.com/t/font_1031158_1uhr8ri0pk5.svg#iconfont") format("svg"); }
</style></defs><path d="M511.857 0.379C229.304 0.379 0 229.274 0 511.559s229.304 511.181 511.857 511.181c282.572 0 511.774-228.894 511.774-511.18S794.43 0.379 511.857 0.379z m-90.4 631.603c-27.34 0-49.315-5.56-76.697-10.957l-76.554 38.35 21.883-65.813c-54.794-38.247-87.624-87.593-87.624-147.63 0-104.06 98.601-186 218.983-186 107.653 0 201.973 65.444 220.938 153.57a189.676 189.676 0 0 0-21.084-1.28c-104.028 0-186.163 77.516-186.163 173.076 0 15.872 2.478 31.201 6.758 45.834a257.213 257.213 0 0 1-20.45 0.86l0.01-0.01z m322.991 76.616l16.486 54.681-60.047-32.87c-21.914 5.489-43.91 10.977-65.72 10.977-104.192 0-186.235-71.117-186.235-158.7 0-87.449 82.043-158.709 186.235-158.709 98.355 0 186 71.26 186 158.71 0 49.316-32.748 93.01-76.719 125.91z" fill="#f12929" p-id="83402"></path><path d="M317.44 378.88a30.72 30.72 0 1 0 61.44 0 30.72 30.72 0 0 0-61.44 0zM552.96 537.6a25.6 25.6 0 1 0 51.205-0.005 25.6 25.6 0 0 0-51.205 0.005z m-81.92-158.72a30.72 30.72 0 0 0 61.44 0.061v-0.056a30.72 30.72 0 0 0-30.72-30.72 30.71 30.71 0 0 0-30.72 30.715z m204.8 158.72a25.6 25.6 0 1 0 51.205-0.005 25.6 25.6 0 0 0-51.205 0.005z" fill="#f12929" p-id="83403"></path></svg>