<?xml version="1.0" standalone="no"?><!DOCTYPE svg PUBLIC "-//W3C//DTD SVG 1.1//EN" "http://www.w3.org/Graphics/SVG/1.1/DTD/svg11.dtd"><svg t="1627613679952" class="icon" viewBox="0 0 1024 1024" version="1.1" xmlns="http://www.w3.org/2000/svg" p-id="9176" xmlns:xlink="http://www.w3.org/1999/xlink" width="200" height="200"><defs><style type="text/css">@font-face { font-family: feedback-iconfont; src: url("//at.alicdn.com/t/font_1031158_1uhr8ri0pk5.eot?#iefix") format("embedded-opentype"), url("//at.alicdn.com/t/font_1031158_1uhr8ri0pk5.woff2") format("woff2"), url("//at.alicdn.com/t/font_1031158_1uhr8ri0pk5.woff") format("woff"), url("//at.alicdn.com/t/font_1031158_1uhr8ri0pk5.ttf") format("truetype"), url("//at.alicdn.com/t/font_1031158_1uhr8ri0pk5.svg#iconfont") format("svg"); }
</style></defs><path d="M23.552 559.104L347.136 831.488c17.408 14.336 43.008 12.288 57.344-5.12 14.336-17.408 12.288-43.008-5.12-57.344l-251.904-211.968L983.04 557.056c22.528 0 40.96-18.432 40.96-40.96s-18.432-40.96-40.96-40.96l-849.92 0L406.528 256c17.408-14.336 20.48-39.936 6.144-57.344-8.192-10.24-20.48-15.36-31.744-15.36-9.21600001 0-18.432 3.072-25.6 9.216l-330.752 265.216c-15.36 12.288-24.576 30.72-24.576 51.2 0 19.45599999 8.192 37.888 23.552 50.176z" p-id="9177"></path></svg>