<?xml version="1.0" standalone="no"?><!DOCTYPE svg PUBLIC "-//W3C//DTD SVG 1.1//EN" "http://www.w3.org/Graphics/SVG/1.1/DTD/svg11.dtd"><svg t="1627528653071" class="icon" viewBox="0 0 1024 1024" version="1.1" xmlns="http://www.w3.org/2000/svg" p-id="56482" xmlns:xlink="http://www.w3.org/1999/xlink" width="200" height="200"><defs><style type="text/css">@font-face { font-family: feedback-iconfont; src: url("//at.alicdn.com/t/font_1031158_1uhr8ri0pk5.eot?#iefix") format("embedded-opentype"), url("//at.alicdn.com/t/font_1031158_1uhr8ri0pk5.woff2") format("woff2"), url("//at.alicdn.com/t/font_1031158_1uhr8ri0pk5.woff") format("woff"), url("//at.alicdn.com/t/font_1031158_1uhr8ri0pk5.ttf") format("truetype"), url("//at.alicdn.com/t/font_1031158_1uhr8ri0pk5.svg#iconfont") format("svg"); }
</style></defs><path d="M623.473708 59.574849c-17.872455-17.872455-46.85791-17.872455-64.730365 0L59.002014 559.316178c-17.757888 17.872455-17.757888 46.743343 0 64.730365l63.126426 63.126426c79.853211-37.921683 175.402103-3.895279 213.323786 75.957933 20.622063 43.4209 20.622063 93.944954 0 137.365853l63.126427 63.126427c17.872455 17.872455 46.85791 17.872455 64.730365 0l499.855896-499.741329c17.757888-17.872455 17.757888-46.743343 0-64.730365l-48.347281-48.232714c-75.499664 46.055941-174.027299 22.226001-220.083241-53.273663-31.276796-51.211457-31.276796-115.59812 0-166.809577l-71.260684-71.260685z m371.884538 307.26874c35.630342 35.744909 35.630342 93.601253 0 129.346163L495.731484 995.931081c-35.744909 35.744909-93.601253 35.744909-129.346163 0L277.252182 906.912508c41.47326-47.659879 36.432311-119.951667-11.227568-161.424927-43.077198-37.348848-107.005594-37.463415-150.082793 0l-89.133139-89.133139c-35.630342-35.744909-35.630342-93.601253 0-129.346163L526.435444 27.26695c35.744909-35.744909 93.601253-35.744909 129.346163 0l100.475274 100.475274c-47.659879 41.47326-52.700828 113.650481-11.342135 161.31036 41.47326 47.659879 113.650481 52.700828 161.31036 11.342135 4.009846-3.551578 7.790557-7.217722 11.342135-11.342135l77.791005 77.791005z m-466.516894-31.620497L334.764824 529.414187c-8.363392 9.509062-7.446856 23.944507 2.062207 32.307898 8.707093 7.67599 21.653166 7.67599 30.360259 0l194.076527-194.076527c8.363392-9.509062 7.446856-23.944507-2.062206-32.307899-8.707093-7.67599-21.767733-7.67599-30.360259-0.114567zM654.979638 472.474379L472.016111 655.552473c-8.363392 9.509062-7.446856 23.944507 2.062206 32.307898 8.707093 7.67599 21.653166 7.67599 30.36026 0L687.402103 504.896845c8.363392-9.509062 7.446856-23.944507-2.062206-32.307899-8.707093-7.67599-21.653166-7.67599-30.360259-0.114567z" p-id="56483" fill="#2e2e2e"></path></svg>