<?xml version="1.0" standalone="no"?><!DOCTYPE svg PUBLIC "-//W3C//DTD SVG 1.1//EN" "http://www.w3.org/Graphics/SVG/1.1/DTD/svg11.dtd"><svg t="1627528256461" class="icon" viewBox="0 0 1024 1024" version="1.1" xmlns="http://www.w3.org/2000/svg" p-id="45982" xmlns:xlink="http://www.w3.org/1999/xlink" width="200" height="200"><defs><style type="text/css">@font-face { font-family: feedback-iconfont; src: url("//at.alicdn.com/t/font_1031158_1uhr8ri0pk5.eot?#iefix") format("embedded-opentype"), url("//at.alicdn.com/t/font_1031158_1uhr8ri0pk5.woff2") format("woff2"), url("//at.alicdn.com/t/font_1031158_1uhr8ri0pk5.woff") format("woff"), url("//at.alicdn.com/t/font_1031158_1uhr8ri0pk5.ttf") format("truetype"), url("//at.alicdn.com/t/font_1031158_1uhr8ri0pk5.svg#iconfont") format("svg"); }
</style></defs><path d="M10.24 0h1003.093333v1003.093333H10.24z" fill="#2e2e2e" fill-opacity=".01" p-id="45983"></path><path d="M1013.76 20.906667H10.24V1024h1003.093333V20.906667z" fill="#2e2e2e" fill-opacity=".01" p-id="45984"></path><path d="M512 971.946667c-3.413333 0-6.826667-0.426667-9.813333-1.706667A580.394667 580.394667 0 0 1 104.533333 418.56V193.28c0-14.08 9.386667-26.026667 22.613334-30.293333l376.32-109.653334c5.546667-1.706667 11.946667-1.706667 17.493333 0l375.893333 109.653334c13.226667 3.84 22.613333 16.213333 22.613334 30.293333v225.28c0 250.453333-159.573333 472.32-397.653334 551.68-2.986667 0.853333-6.4 1.706667-9.813333 1.706667zM167.253333 216.746667v201.813333c0 220.16 138.24 415.146667 344.746667 488.533333 206.506667-73.386667 344.746667-268.373333 344.746667-488.533333V216.746667L512 116.053333 167.253333 216.746667z" fill="#2e2e2e" p-id="45985"></path><path d="M470.186667 658.346667c-8.106667 0-16.213333-3.413333-22.186667-8.96l-146.346667-146.346667c-12.373333-12.373333-12.373333-32 0-44.373333s32-12.373333 44.373334 0l124.16 124.16 228.693333-228.693334c12.373333-12.373333 32-12.373333 44.373333 0s12.373333 32 0 44.373334l-250.88 250.88a32.426667 32.426667 0 0 1-22.186666 8.96z" fill="#2e2e2e" p-id="45986"></path></svg>