<?xml version="1.0" standalone="no"?><!DOCTYPE svg PUBLIC "-//W3C//DTD SVG 1.1//EN" "http://www.w3.org/Graphics/SVG/1.1/DTD/svg11.dtd"><svg t="1627528814216" class="icon" viewBox="0 0 1024 1024" version="1.1" xmlns="http://www.w3.org/2000/svg" p-id="67400" xmlns:xlink="http://www.w3.org/1999/xlink" width="200" height="200"><defs><style type="text/css">@font-face { font-family: feedback-iconfont; src: url("//at.alicdn.com/t/font_1031158_1uhr8ri0pk5.eot?#iefix") format("embedded-opentype"), url("//at.alicdn.com/t/font_1031158_1uhr8ri0pk5.woff2") format("woff2"), url("//at.alicdn.com/t/font_1031158_1uhr8ri0pk5.woff") format("woff"), url("//at.alicdn.com/t/font_1031158_1uhr8ri0pk5.ttf") format("truetype"), url("//at.alicdn.com/t/font_1031158_1uhr8ri0pk5.svg#iconfont") format("svg"); }
</style></defs><path d="M502.357 730.333h32.226V421.939h-32.226z m0-368.273h32.226v-78.221h-32.226z" p-id="67401" fill="#2e2e2e"></path><path d="M512.696 937.49c-243.026 0-440.762-190.607-440.762-424.96S269.67 87.568 512.694 87.568c243.025 0 440.742 190.609 440.742 424.962S755.72 937.49 512.696 937.49z m0-817.731c-225.266 0-408.527 176.221-408.527 392.77 0 216.552 183.26 392.768 408.527 392.768 225.27 0 408.546-176.216 408.546-392.767 0-216.55-183.277-392.771-408.546-392.771z" p-id="67402" fill="#2e2e2e"></path></svg>