<?xml version="1.0" standalone="no"?><!DOCTYPE svg PUBLIC "-//W3C//DTD SVG 1.1//EN" "http://www.w3.org/Graphics/SVG/1.1/DTD/svg11.dtd"><svg t="1627527978765" class="icon" viewBox="0 0 1024 1024" version="1.1" xmlns="http://www.w3.org/2000/svg" p-id="37764" xmlns:xlink="http://www.w3.org/1999/xlink" width="200" height="200"><defs><style type="text/css">@font-face { font-family: feedback-iconfont; src: url("//at.alicdn.com/t/font_1031158_1uhr8ri0pk5.eot?#iefix") format("embedded-opentype"), url("//at.alicdn.com/t/font_1031158_1uhr8ri0pk5.woff2") format("woff2"), url("//at.alicdn.com/t/font_1031158_1uhr8ri0pk5.woff") format("woff"), url("//at.alicdn.com/t/font_1031158_1uhr8ri0pk5.ttf") format("truetype"), url("//at.alicdn.com/t/font_1031158_1uhr8ri0pk5.svg#iconfont") format("svg"); }
</style></defs><path d="M830.24 927.11c-16.57 0-30-13.43-30-30V445.13c0-158.94-129.3-288.24-288.24-288.24s-288.24 129.3-288.24 288.24V897.1c0 16.57-13.43 30-30 30s-30-13.43-30-30V445.13c0-47 9.21-92.61 27.38-135.56 17.54-41.47 42.65-78.71 74.62-110.68s69.21-57.08 110.68-74.62C419.39 106.1 465 96.89 512 96.89s92.61 9.21 135.56 27.38c41.47 17.54 78.71 42.65 110.68 74.62 31.97 31.97 57.08 69.21 74.62 110.68 18.17 42.95 27.38 88.56 27.38 135.56V897.1c0 16.58-13.43 30.01-30 30.01z" fill="#2e2e2e" p-id="37765"></path><path d="M193.76 927.11c-68.39 0-124.03-55.64-124.03-124.03V638.97c0-68.39 55.64-124.03 124.03-124.03 16.57 0 30 13.43 30 30v352.17c0 7.96-3.16 15.59-8.79 21.21s-13.25 8.79-21.21 8.79z m-30-344.7c-20.23 10.77-34.03 32.08-34.03 56.56v164.11c0 24.47 13.8 45.79 34.03 56.56V582.41zM830.24 927.11c-16.57 0-30-13.43-30-30V544.93c0-16.57 13.43-30 30-30 68.39 0 124.03 55.64 124.03 124.03v164.11c0 68.4-55.64 124.04-124.03 124.04z m30-344.7v277.23c20.23-10.77 34.03-32.09 34.03-56.56V638.97c0-24.48-13.8-45.79-34.03-56.56z" fill="#2e2e2e" p-id="37766"></path><path d="M455.69 814.11c-53.8 0-97.57-43.77-97.57-97.57 0-53.8 43.77-97.57 97.57-97.57s97.57 43.77 97.57 97.57c0 53.8-43.77 97.57-97.57 97.57z m0-135.13c-20.71 0-37.57 16.85-37.57 37.57s16.85 37.57 37.57 37.57 37.57-16.85 37.57-37.57-16.85-37.57-37.57-37.57z" fill="#2e2e2e" p-id="37767"></path><path d="M523.26 746.54c-16.57 0-30-13.43-30-30V449.3c0-10.99 6.01-21.1 15.66-26.35a29.975 29.975 0 0 1 30.63 1.17l112.61 72.87c13.91 9 17.89 27.57 8.89 41.48-9 13.91-27.57 17.89-41.49 8.89l-66.31-42.91v212.09c0.01 16.57-13.42 30-29.99 30z" fill="#2e2e2e" p-id="37768"></path></svg>