<?xml version="1.0" standalone="no"?><!DOCTYPE svg PUBLIC "-//W3C//DTD SVG 1.1//EN" "http://www.w3.org/Graphics/SVG/1.1/DTD/svg11.dtd"><svg t="1627528021500" class="icon" viewBox="0 0 1024 1024" version="1.1" xmlns="http://www.w3.org/2000/svg" p-id="38018" xmlns:xlink="http://www.w3.org/1999/xlink" width="200" height="200"><defs><style type="text/css">@font-face { font-family: feedback-iconfont; src: url("//at.alicdn.com/t/font_1031158_1uhr8ri0pk5.eot?#iefix") format("embedded-opentype"), url("//at.alicdn.com/t/font_1031158_1uhr8ri0pk5.woff2") format("woff2"), url("//at.alicdn.com/t/font_1031158_1uhr8ri0pk5.woff") format("woff"), url("//at.alicdn.com/t/font_1031158_1uhr8ri0pk5.ttf") format("truetype"), url("//at.alicdn.com/t/font_1031158_1uhr8ri0pk5.svg#iconfont") format("svg"); }
</style></defs><path d="M230.14 551.2c-16.11 0-29.17 13.06-29.17 29.17v213.9c0 16.11 13.06 29.17 29.17 29.17s29.17-13.06 29.17-29.17v-213.9c0-16.11-13.06-29.17-29.17-29.17zM346.81 551.2c-16.11 0-29.17 13.06-29.17 29.17v213.9c0 16.11 13.06 29.17 29.17 29.17s29.17-13.06 29.17-29.17v-213.9c0-16.11-13.06-29.17-29.17-29.17zM463.49 551.2c-16.11 0-29.17 13.06-29.17 29.17v213.9c0 16.11 13.06 29.17 29.17 29.17s29.17-13.06 29.17-29.17v-213.9c-0.01-16.11-13.07-29.17-29.17-29.17z" p-id="38019" fill="#2e2e2e"></path><path d="M847.72 78.41c-15.23-9.56-32.89-14.38-50.88-14.38H226.8c-17.77 0-35.21 4.69-50.31 14.05-35.63 22.11-96.07 69.88-111.64 161.98v593.76c0 69.44 56.29 125.73 125.73 125.73h643.05c69.44 0 125.73-56.29 125.73-125.73V240.07c-15.27-91.33-75.87-139.21-111.64-161.66z m-643.86 54.06c9.65-6.61 21.09-10.1 32.79-10.1h550.01a58.15 58.15 0 0 1 33.21 10.39c28.23 19.62 66.73 48 79.65 107.3H124.74c13.35-59.92 51.62-88.74 79.12-107.59z m697.15 701.36c0 37.16-30.23 67.4-67.4 67.4H190.57c-37.15 0-67.39-30.23-67.39-67.4V298.41h777.83v535.42z" p-id="38020" fill="#2e2e2e"></path></svg>