<?xml version="1.0" standalone="no"?><!DOCTYPE svg PUBLIC "-//W3C//DTD SVG 1.1//EN" "http://www.w3.org/Graphics/SVG/1.1/DTD/svg11.dtd"><svg t="1627526644598" class="icon" viewBox="0 0 1024 1024" version="1.1" xmlns="http://www.w3.org/2000/svg" p-id="27810" xmlns:xlink="http://www.w3.org/1999/xlink" width="200" height="200"><defs><style type="text/css">@font-face { font-family: feedback-iconfont; src: url("//at.alicdn.com/t/font_1031158_1uhr8ri0pk5.eot?#iefix") format("embedded-opentype"), url("//at.alicdn.com/t/font_1031158_1uhr8ri0pk5.woff2") format("woff2"), url("//at.alicdn.com/t/font_1031158_1uhr8ri0pk5.woff") format("woff"), url("//at.alicdn.com/t/font_1031158_1uhr8ri0pk5.ttf") format("truetype"), url("//at.alicdn.com/t/font_1031158_1uhr8ri0pk5.svg#iconfont") format("svg"); }
</style></defs><path d="M280.4 87.2L131.7 234.4l-60.5-60L219.9 27.2l60.5 60z m523.7-60.1l148.7 147.2-60.5 60.1L743.6 87.2l60.5-60.1zM512 923c201.9 0 365.6-160.8 365.6-359.2S714 204.5 512 204.5 146.4 365.4 146.4 563.8 310 923 512 923z m0 73.9C268.6 996.9 71.3 803 71.3 563.8s197.3-433 440.7-433 440.7 193.9 440.7 433S755.3 996.9 512 996.9z m25.2-443.3h167.7V619H468V307.6h69.3v246z" fill="#2e2e2e" p-id="27811"></path></svg>