<?xml version="1.0" standalone="no"?><!DOCTYPE svg PUBLIC "-//W3C//DTD SVG 1.1//EN" "http://www.w3.org/Graphics/SVG/1.1/DTD/svg11.dtd"><svg t="1627528727122" class="icon" viewBox="0 0 1024 1024" version="1.1" xmlns="http://www.w3.org/2000/svg" p-id="60759" xmlns:xlink="http://www.w3.org/1999/xlink" width="200" height="200"><defs><style type="text/css">@font-face { font-family: feedback-iconfont; src: url("//at.alicdn.com/t/font_1031158_1uhr8ri0pk5.eot?#iefix") format("embedded-opentype"), url("//at.alicdn.com/t/font_1031158_1uhr8ri0pk5.woff2") format("woff2"), url("//at.alicdn.com/t/font_1031158_1uhr8ri0pk5.woff") format("woff"), url("//at.alicdn.com/t/font_1031158_1uhr8ri0pk5.ttf") format("truetype"), url("//at.alicdn.com/t/font_1031158_1uhr8ri0pk5.svg#iconfont") format("svg"); }
</style></defs><path d="M854.9 390.6c-48.1-150-180.7-258.3-336.6-258.3-155.4 0-287.5 107.5-336 256.7-65.9 5-118 63.5-118 134.8v98.5c0 74.6 57 135.3 127.1 135.3h68.1c19.6 0 35.5-15.9 35.5-35.5V424c0-19.6-15.9-35.5-35.5-35.5h-1.7c44.4-109 144.4-185.2 260.6-185.2 116.2 0 216.2 76.3 260.6 185.2h-13.7c-19.6 0-35.5 15.9-35.5 35.5v298.2c0 9 3.5 17.2 9 23.4-53.1 61.3-131.2 96.4-227.2 96.4-13.1 0-23.7 10.6-23.7 23.7s10.6 23.7 23.7 23.7c119.2 0 216.2-48.7 277.8-131.6h43.9c70.1 0 127.1-60.7 127.1-135.3v-98.6c0-66.8-45.7-122.3-105.5-133.3z m-631 147.5v148.5h-32.6c-31 0-56.2-28.9-56.2-64.3v-98.5c0-5.6 0.8-10.9 2-16.1 0.3-1.2 0.6-2.4 1-3.6 1.3-4.5 2.9-8.8 5-12.8 0.2-0.4 0.4-0.9 0.6-1.3 5.2-9.6 12.6-17.4 21.4-22.8 3.7-2.2 7.6-4 11.7-5.3 0.4-0.1 0.8-0.3 1.2-0.4 4.3-1.3 8.7-2 13.3-2h32.6v78.6z m665.5 84.2c0 35.5-25.2 64.3-56.2 64.3h-32.5V459.5h32.6c15.4 0 29.4 7.2 39.6 18.7 10.9 12.7 16.8 28.9 16.6 45.6l-0.1 98.5z m0 0" p-id="60760" fill="#2e2e2e"></path></svg>