<?xml version="1.0" standalone="no"?><!DOCTYPE svg PUBLIC "-//W3C//DTD SVG 1.1//EN" "http://www.w3.org/Graphics/SVG/1.1/DTD/svg11.dtd"><svg t="1627526187308" class="icon" viewBox="0 0 1024 1024" version="1.1" xmlns="http://www.w3.org/2000/svg" p-id="19968" xmlns:xlink="http://www.w3.org/1999/xlink" width="200" height="200"><defs><style type="text/css">@font-face { font-family: feedback-iconfont; src: url("//at.alicdn.com/t/font_1031158_1uhr8ri0pk5.eot?#iefix") format("embedded-opentype"), url("//at.alicdn.com/t/font_1031158_1uhr8ri0pk5.woff2") format("woff2"), url("//at.alicdn.com/t/font_1031158_1uhr8ri0pk5.woff") format("woff"), url("//at.alicdn.com/t/font_1031158_1uhr8ri0pk5.ttf") format("truetype"), url("//at.alicdn.com/t/font_1031158_1uhr8ri0pk5.svg#iconfont") format("svg"); }
</style></defs><path d="M578.41822116 581.0848662c-0.19652606 0.37481871 0.04777322 0.32901003-0.32679991 0.13249421-0.37481871-0.19652606-0.77745822-0.17977628-0.58118798-0.55459499 0.19676139-0.37481871 0.65974927-0.51913087 1.03482378-0.32261502 0.37480847 0.19627027 0.06967994 0.37014268-0.12683588 0.7447158" fill="#FC607B" p-id="19969"></path><path d="M836.5674951 241.46151664c-20.03823882 0-36.30815763-11.567104-53.54169836-23.80655881-8.99663645-6.39704178-18.28575763-12.99797333-28.48024653-18.34401186-10.19448889-5.373952-21.00307437-9.3182483-31.45970725-13.1156954-23.10508089-8.4420077-47.00023467-17.17528652-56.28814222-41.21486222-5.98804859-15.48105955-3.97099615-32.4524563 6.2222791-51.87781216 20.97273363-39.92962845 61.98370608-64.70102282 107.05426963-64.7010228 19.39501511 0 38.79245748 4.79019615 56.05512534 13.84630043 28.56762785 14.95555792 49.59982933 40.19298608 59.20934873 71.00946964 9.58160592 30.81648355 6.6312723 63.50317037-8.35462637 92.09992534-12.55863941 23.95219437-29.53124978 36.10426785-50.41660207 36.10426784z m-111.49494044-118.76822281c4.96617245 2.36657778 12.53072592 5.111808 18.51877451 7.30240947 11.7430803 4.29382163 25.03353837 9.14348563 38.76211674 16.35851379 13.729792 7.18590103 25.20830103 15.335424 35.3154086 22.52132504 4.84845037 3.44670815 10.86562608 7.74052978 15.39489185 10.42750577 0.29127111-0.52550163 0.61288297-1.11047111 0.93570845-1.72335407 7.56333985-14.45918341 9.05489067-30.96333275 4.20644029-46.53177364-4.849664-15.53931378-15.45193245-28.246016-29.85407526-35.81056947-29.29823289-15.335424-67.18289541-3.27194548-82.34355674 25.64642133-0.35195259 0.66992355-0.67235082 1.25489303-0.93570844 1.80952178z" fill="#213847" p-id="19970"></path><path d="M575.8387288 584.77230476l0.14103003 0.07360383 0.00941243-0.16164041c0.01534036-0.02892593-0.00310137-0.05458517 0.00776709-0.07527655l0.08274032-0.13510321c0.06665883-0.12714228 0.06103191-0.24009813-0.06611038-0.30678432-0.12716965-0.06668619-0.28428231-0.01767321-0.35094117 0.10949757l-0.06460187 0.12316526c-0.01086618 0.02069135-0.01942913 0.03831097-0.02908901 0.05702635l-0.1848288 0.07832201 0.38417477 0.20044509" fill="#333333" p-id="19971"></path><path d="M827.13273836 976.53392435c-4.76106903 0-9.52213808-1.13838459-13.90334104-3.41515378l-176.5746157-92.59872711c-14.60603259-7.6798483-20.27246933-25.76171615-12.59019378-40.39566222 7.65436208-14.60603259 25.70467555-20.27368297 40.39687585-12.58898016l120.57895822 63.23859911-30.46695822-147.33463703a29.98514725 29.98514725 0 0 1 2.8629523-20.03945244 2141.12786963 2141.12786963 0 0 1 18.31488475-33.94157986c4.43945718-8.09248237 8.32428563-15.22012918 13.93246814-25.91099259l68.76061393-131.12418608c30.61259378-58.36223525 36.68681008-125.16526459 17.0599917-188.0846791-19.63045925-62.947328-62.56867555-114.44406045-120.93212444-145.02874075-115.20500622-60.43511467-258.07105897-20.79675733-325.48697126 90.2018086-8.53060267 14.16669867-26.93165511 18.66441008-41.0704403 10.0476397-14.13757155-8.55851615-18.63528297-26.96078222-10.0476397-41.06922667 83.74529897-137.90109392 261.40125867-187.17809778 404.38503348-112.16607763 72.49859318 38.00238459 125.86674252 102.00192948 150.25827081 180.19730016 24.39031467 78.16624355 16.8548883 161.18093748-21.17783703 233.7098714l-68.7594003 131.0962726c-5.81328592 11.06951585-9.84496355 18.4605203-14.46039703 26.90374163a1959.22177897 1959.22177897 0 0 0-12.85233778 23.69005036l41.06922666 198.65782045c2.3386643 11.30374637-2.07287941 22.95944533-11.30374638 29.94024296a29.97786548 29.97786548 0 0 1-17.99327288 6.01474845zM294.19398636 697.05322509a30.08587852 30.08587852 0 0 1-13.87542755-3.41758105l-195.73782757-102.67549391a29.96451555 29.96451555 0 0 1-15.97743407-27.71930075c0.46724741-11.567104 7.56576711-21.79072 18.1983763-26.31998578l186.62346904-79.07161126 5.8120723-11.62535821c7.41891792-14.80992237 25.47165867-20.71058963 40.16385896-13.29045809 14.77958163 7.44804503 20.71058963 25.41219082 13.2916717 40.16385898l-10.89596681 21.64387081a29.82373452 29.82373452 0 0 1-14.92643082 13.90455466l-138.51397688 58.68384712 139.77008355 73.31779319c14.60481897 7.68227555 20.27246933 25.76414341 12.59019378 40.39808947-5.34482489 10.19327525-15.74320355 16.00777482-26.52266193 16.00777482z" fill="#213847" p-id="19972"></path><path d="M346.5669594 411.28956523a30.06160592 30.06160592 0 0 1-13.87421393-3.41758104c-14.6351597-7.68227555-20.27246933-25.76414341-12.59019378-40.39808947l22.60870638-43.05593837c7.71140267-14.6351597 25.7350163-20.18387437 40.39808947-12.59019378 14.6351597 7.68348918 20.2712557 25.76414341 12.59019378 40.39808947l-22.60870636 43.05593837c-5.37516563 10.19448889-15.7735443 16.00777482-26.52387556 16.00777482zM611.59090251 604.51396583c-17.35126282-65.40128711-79.56798578-85.75992415-110.9973523-87.30730194-8.03301452-0.49758815-16.2407917 2.59959467-22.19971319 8.32428564a29.87106608 29.87106608 0 0 0-9.17139911 21.8477606l0.07888593 7.91286518a29.9378157 29.9378157 0 0 0-1.48184177 9.20659438l-0.62744653 196.52061865c-19.62439111-11.22243318-42.83748503-17.72506075-67.69626073-17.72506073-70.22061037 0-127.35586608 51.84747141-127.35586607 115.58365866s57.1352557 115.58365867 127.35586607 115.58365867 127.35586608-51.84747141 127.35586607-115.58365867c0-2.50614518-0.098304-4.9928723-0.27306667-7.46018133 0.09709037-0.96604918 0.1517037-1.94666192 0.1553446-2.93819733l0.6432237-201.490432h56.46290489a1.88112592 1.88112592 0 0 1 0.58375584 0c16.53327645 0 29.91111585-13.37783941 29.91111586-29.91111586 0.00242725-4.5013523-0.9624083-8.76604682-2.74401659-12.56349392zM399.49577481 914.63881324c-37.24265245 0-67.53363437-25.00562489-67.53363437-55.76264061s30.29098192-55.76264059 67.53363437-55.76264058c37.24386608 0 67.53363437 25.00562489 67.53363436 55.76264058s-30.2897683 55.76264059-67.53363436 55.76264061z" fill="#213847" p-id="19973"></path></svg>