<?xml version="1.0" standalone="no"?><!DOCTYPE svg PUBLIC "-//W3C//DTD SVG 1.1//EN" "http://www.w3.org/Graphics/SVG/1.1/DTD/svg11.dtd"><svg t="1627526578979" class="icon" viewBox="0 0 1024 1024" version="1.1" xmlns="http://www.w3.org/2000/svg" p-id="27000" xmlns:xlink="http://www.w3.org/1999/xlink" width="200" height="200"><defs><style type="text/css">@font-face { font-family: feedback-iconfont; src: url("//at.alicdn.com/t/font_1031158_1uhr8ri0pk5.eot?#iefix") format("embedded-opentype"), url("//at.alicdn.com/t/font_1031158_1uhr8ri0pk5.woff2") format("woff2"), url("//at.alicdn.com/t/font_1031158_1uhr8ri0pk5.woff") format("woff"), url("//at.alicdn.com/t/font_1031158_1uhr8ri0pk5.ttf") format("truetype"), url("//at.alicdn.com/t/font_1031158_1uhr8ri0pk5.svg#iconfont") format("svg"); }
</style></defs><path d="M512 951.466667C268.8 951.466667 72.533333 755.2 72.533333 512c0-187.733333 119.466667-354.133333 294.4-413.866667l38.4-12.8-12.8 38.4c-17.066667 42.666667-21.333333 89.6-21.333333 132.266667 0 217.6 179.2 396.8 396.8 396.8 42.666667 0 89.6-8.533333 132.266667-21.333333l38.4-12.8-12.8 38.4c-64 174.933333-230.4 294.4-413.866667 294.4zM345.6 136.533333c-145.066667 68.266667-234.666667 213.333333-234.666667 371.2 0 226.133333 183.466667 409.6 409.6 409.6 157.866667 0 302.933333-89.6 371.2-234.666666-34.133333 8.533333-68.266667 12.8-106.666666 12.8-247.466667 0-452.266667-200.533333-452.266667-452.266667 0-38.4 4.266667-72.533333 12.8-106.666667z" fill="#2e2e2e" p-id="27001"></path></svg>