<?xml version="1.0" standalone="no"?><!DOCTYPE svg PUBLIC "-//W3C//DTD SVG 1.1//EN" "http://www.w3.org/Graphics/SVG/1.1/DTD/svg11.dtd"><svg t="1627528492778" class="icon" viewBox="0 0 1024 1024" version="1.1" xmlns="http://www.w3.org/2000/svg" p-id="54880" xmlns:xlink="http://www.w3.org/1999/xlink" width="200" height="200"><defs><style type="text/css">@font-face { font-family: feedback-iconfont; src: url("//at.alicdn.com/t/font_1031158_1uhr8ri0pk5.eot?#iefix") format("embedded-opentype"), url("//at.alicdn.com/t/font_1031158_1uhr8ri0pk5.woff2") format("woff2"), url("//at.alicdn.com/t/font_1031158_1uhr8ri0pk5.woff") format("woff"), url("//at.alicdn.com/t/font_1031158_1uhr8ri0pk5.ttf") format("truetype"), url("//at.alicdn.com/t/font_1031158_1uhr8ri0pk5.svg#iconfont") format("svg"); }
</style></defs><path d="M688.027744 744.729406h-398.60942c-18.245973 0-33.419951 10.379985-33.419951 23.272966s14.707979 23.271966 33.419951 23.271967h398.60942c18.245973 0 33.419951-10.379985 33.419951-23.271967s-15.173978-23.272966-33.419951-23.272966z" fill="#2e2e2e" p-id="54881"></path><path d="M679.649756 0.10449v1.023998c-4.188994 0-22.527967-1.535998-68.6539-1.023998h-403.869412C131.118554 0.10449 69.818643 60.520402 69.818643 134.760294v754.584902c0 74.239892 61.299911 134.654804 137.307801 134.654804h609.738112c76.006889 0 137.3068-60.414912 137.306801-134.654804V269.367098L679.649756 0.15049z m207.962697 271.356605l-139.867796-2.047997h4.700993c-31.929954 0-76.984888-30.253956-76.984888-67.069902l-1.069998-139.262798L887.611453 271.460095z m7.35399 627.611087c0 37.887945-31.417954 69.119899-70.189898 69.119899H199.213455c-38.771944 0-70.189898-30.719955-70.189898-69.119899v-773.528875c0-37.887945 31.417954-69.119899 70.189898-69.119899h412.853399a4386.389617 4386.389617 0 0 0 1.023999 137.726799c0 76.286889 62.881909 137.7268 140.937795 137.7268h140.937795v567.195175z" fill="#2e2e2e" p-id="54882"></path><path d="M688.027744 513.727742h-398.60942c-18.245973 0-33.419951 10.006985-33.419951 22.387968 0 12.426982 14.707979 22.434967 33.419951 22.434967h398.60942c18.245973 0 33.419951-10.007985 33.419951-22.434967 0-12.380982-15.173978-22.387967-33.419951-22.387968zM524.422982 325.826016h-247.61964c-11.728983 0-20.80497 10.006985-20.804969 22.433967 0 12.380982 9.122987 22.388967 20.758969 22.388968h247.66564c11.635983 0 20.75897-10.007985 20.75897-22.388968 0-12.426982-9.122987-22.433967-20.75997-22.433967z" fill="#2e2e2e" p-id="54883"></path></svg>