<?xml version="1.0" standalone="no"?><!DOCTYPE svg PUBLIC "-//W3C//DTD SVG 1.1//EN" "http://www.w3.org/Graphics/SVG/1.1/DTD/svg11.dtd"><svg t="1627526525303" class="icon" viewBox="0 0 1060 1024" version="1.1" xmlns="http://www.w3.org/2000/svg" p-id="25456" xmlns:xlink="http://www.w3.org/1999/xlink" width="207.03125" height="200"><defs><style type="text/css">@font-face { font-family: feedback-iconfont; src: url("//at.alicdn.com/t/font_1031158_1uhr8ri0pk5.eot?#iefix") format("embedded-opentype"), url("//at.alicdn.com/t/font_1031158_1uhr8ri0pk5.woff2") format("woff2"), url("//at.alicdn.com/t/font_1031158_1uhr8ri0pk5.woff") format("woff"), url("//at.alicdn.com/t/font_1031158_1uhr8ri0pk5.ttf") format("truetype"), url("//at.alicdn.com/t/font_1031158_1uhr8ri0pk5.svg#iconfont") format("svg"); }
</style></defs><path d="M525.159026 348.650933a152.214506 152.214506 0 0 0-152.024712 152.024713 152.214506 152.214506 0 0 0 152.024712 152.024712 152.214506 152.214506 0 0 0 152.024713-152.024712 152.214506 152.214506 0 0 0-152.024713-152.024713z m0 246.352156a94.264179 94.264179 0 1 1 0-188.591622 94.264179 94.264179 0 0 1 0 188.528358z" p-id="25457"></path><path d="M910.376869 333.720499c0-34.542444-18.473248-66.427777-48.460645-83.698999L573.176819 83.635735a96.731496 96.731496 0 0 0-96.731496 0L187.958977 250.527616a96.731496 96.731496 0 0 0-48.270851 83.825529l0.253058 333.277647c0.063265 34.542444 18.536513 66.427777 48.460645 83.698999l288.739404 166.385766a96.794761 96.794761 0 0 0 96.794761 0l288.423082-166.891882c29.924132-17.334487 48.334116-49.283084 48.270851-83.825528l-0.253058-333.277648z m-76.929692 367.124182l-288.486347 166.828617a38.970963 38.970963 0 0 1-38.970962 0l-288.739405-166.385766a39.097492 39.097492 0 0 1-19.485481-33.720005L197.385395 334.353145c0-13.918201 7.401952-26.824169 19.422217-33.846534l288.486346-166.828618c12.020264-6.9591 26.950698-6.9591 39.034227 0l288.67614 166.385766c12.020264 6.9591 19.485481 19.801804 19.548746 33.720005l0.253058 333.277647c0 13.918201-7.401952 26.760904-19.422217 33.78327z" p-id="25458"></path></svg>