<?xml version="1.0" standalone="no"?><!DOCTYPE svg PUBLIC "-//W3C//DTD SVG 1.1//EN" "http://www.w3.org/Graphics/SVG/1.1/DTD/svg11.dtd"><svg t="1627528284289" class="icon" viewBox="0 0 1024 1024" version="1.1" xmlns="http://www.w3.org/2000/svg" p-id="46897" xmlns:xlink="http://www.w3.org/1999/xlink" width="200" height="200"><defs><style type="text/css">@font-face { font-family: feedback-iconfont; src: url("//at.alicdn.com/t/font_1031158_1uhr8ri0pk5.eot?#iefix") format("embedded-opentype"), url("//at.alicdn.com/t/font_1031158_1uhr8ri0pk5.woff2") format("woff2"), url("//at.alicdn.com/t/font_1031158_1uhr8ri0pk5.woff") format("woff"), url("//at.alicdn.com/t/font_1031158_1uhr8ri0pk5.ttf") format("truetype"), url("//at.alicdn.com/t/font_1031158_1uhr8ri0pk5.svg#iconfont") format("svg"); }
</style></defs><path d="M164.437333 304.896a21.333333 21.333333 0 0 1-30.208 0l-15.061333-15.061333a21.333333 21.333333 0 0 1 0-30.165334l97.834667-97.834666a21.333333 21.333333 0 0 1 30.165333 0l15.061333 15.061333a21.333333 21.333333 0 0 1 0 30.208L164.437333 304.896zM888.448 306.218667a21.333333 21.333333 0 0 1-30.165333 0l-97.834667-97.834667a21.333333 21.333333 0 0 1 0-30.165333l15.104-15.104a21.333333 21.333333 0 0 1 30.165333 0l97.834667 97.834666a21.333333 21.333333 0 0 1 0 30.165334l-15.104 15.104zM501.333333 298.666667a21.333333 21.333333 0 0 0-21.333333 21.333333v196.437333a21.333333 21.333333 0 0 0 6.229333 15.061334l94.72 94.72a21.333333 21.333333 0 0 0 30.165334 0l15.104-15.104a21.333333 21.333333 0 0 0 0-30.165334l-75.946667-75.946666a21.333333 21.333333 0 0 1-6.272-15.104V320a21.333333 21.333333 0 0 0-21.333333-21.333333h-21.333334z" p-id="46898"></path><path d="M853.333333 512a341.333333 341.333333 0 1 1-682.666666 0 341.333333 341.333333 0 0 1 682.666666 0z m-64 0a277.333333 277.333333 0 1 0-554.666666 0 277.333333 277.333333 0 0 0 554.666666 0z" p-id="46899"></path></svg>