<?xml version="1.0" standalone="no"?><!DOCTYPE svg PUBLIC "-//W3C//DTD SVG 1.1//EN" "http://www.w3.org/Graphics/SVG/1.1/DTD/svg11.dtd"><svg t="1627528173554" class="icon" viewBox="0 0 1024 1024" version="1.1" xmlns="http://www.w3.org/2000/svg" p-id="44408" xmlns:xlink="http://www.w3.org/1999/xlink" width="200" height="200"><defs><style type="text/css">@font-face { font-family: feedback-iconfont; src: url("//at.alicdn.com/t/font_1031158_1uhr8ri0pk5.eot?#iefix") format("embedded-opentype"), url("//at.alicdn.com/t/font_1031158_1uhr8ri0pk5.woff2") format("woff2"), url("//at.alicdn.com/t/font_1031158_1uhr8ri0pk5.woff") format("woff"), url("//at.alicdn.com/t/font_1031158_1uhr8ri0pk5.ttf") format("truetype"), url("//at.alicdn.com/t/font_1031158_1uhr8ri0pk5.svg#iconfont") format("svg"); }
</style></defs><path d="M509.525333 62.378667A448.256 448.256 0 0 0 61.781333 510.122667a448.256 448.256 0 0 0 447.744 447.829333A448.256 448.256 0 0 0 957.44 510.037333 448.256 448.256 0 0 0 509.44 62.378667m0 957.354666A510.122667 510.122667 0 0 1 0 510.037333 510.208 510.208 0 0 1 509.525333 0.597333a510.208 510.208 0 0 1 509.610667 509.525334 510.122667 510.122667 0 0 1-509.610667 509.610666" p-id="44409"></path><path d="M254.037333 90.88l563.541334 812.032-52.48 36.352-563.456-812.032z" p-id="44410"></path></svg>